<svg version="1.1" id="Layer_1" xmlns="http://www.w3.org/2000/svg" xmlns:xlink="http://www.w3.org/1999/xlink" x="0px" y="0px"
	 width="100%" viewBox="0 0 1024 1024" enable-background="new 0 0 1024 1024" xml:space="preserve">
<path fill="#000000" opacity="1.000000" stroke="none" 
	d="
M478.013611,787.954041 
	C484.373993,784.607849 490.408722,781.433594 497.312225,777.802368 
	C494.908081,776.875977 493.178192,776.081299 491.373291,775.534180 
	C476.571808,771.046204 461.734558,766.674500 446.964020,762.087769 
	C444.106140,761.200317 441.882812,761.600525 439.487122,763.216736 
	C418.569031,777.329468 395.426056,781.506775 370.540710,779.571167 
	C347.222626,777.757385 325.949036,770.866028 306.850800,757.353455 
	C305.403442,756.329468 303.522736,755.680054 303.084778,753.101074 
	C332.829803,737.166504 363.980957,736.776123 396.783539,745.835144 
	C395.576508,742.877075 393.914612,742.551086 392.571564,741.953613 
	C376.421570,734.769043 360.463440,727.213928 345.924011,717.038513 
	C343.288239,715.193848 340.704224,716.179871 338.239502,716.587708 
	C291.852051,724.263916 255.557266,707.107605 226.755112,671.453857 
	C225.656326,670.093689 224.195007,668.795593 224.022736,665.842957 
	C255.471359,660.147217 282.532562,671.381592 308.863953,686.691895 
	C303.234070,680.660095 297.507843,674.714783 291.999847,668.573669 
	C285.770660,661.628540 279.567322,654.645386 273.700317,647.397400 
	C271.258881,644.381348 268.350098,643.230225 264.806793,642.647400 
	C228.021698,636.596802 202.935928,615.043884 185.987320,582.869263 
	C182.889313,576.988098 180.150208,570.901001 178.453415,564.411133 
	C177.142029,559.395325 177.683701,558.625977 182.578674,559.522034 
	C203.656342,563.380310 220.321518,574.837219 234.454987,590.308533 
	C239.940735,596.313538 245.369598,602.456055 249.954361,609.350708 
	C247.791153,604.730835 245.701813,600.074646 243.450653,595.497986 
	C237.117599,582.623169 231.610870,569.420837 227.811462,555.568542 
	C227.206116,553.361450 226.082382,552.121521 224.182053,551.214050 
	C192.185562,535.934509 176.057648,508.964600 168.652756,475.635559 
	C166.777679,467.195923 165.525497,458.647858 165.669861,449.961609 
	C165.696487,448.358917 165.237549,446.620544 167.133072,444.528595 
	C196.997223,457.339050 208.896683,483.781311 218.240768,512.316833 
	C217.410309,505.354004 217.378723,498.442535 216.522369,491.645630 
	C215.096909,480.331543 215.812668,469.017334 215.734238,457.707977 
	C215.704147,453.367554 214.384949,450.251190 211.177643,447.247467 
	C194.945938,432.046173 186.385605,412.979401 183.612000,391.102783 
	C181.432449,373.911835 182.560837,356.929962 186.750504,340.146912 
	C187.298553,337.951599 187.520309,335.511078 189.482559,333.792664 
	C192.336166,333.883240 193.789017,336.097443 195.439056,337.867065 
	C207.910248,351.242310 214.280716,367.493652 217.286652,385.210297 
	C218.639420,393.183380 219.830887,401.210388 219.901474,409.407867 
	C223.899307,391.102936 228.492722,372.999847 234.250717,355.208496 
	C234.753433,353.655151 234.528763,352.302246 233.735825,350.917877 
	C217.032745,321.756256 219.305435,292.054352 231.248886,262.089752 
	C234.033401,255.103775 237.376389,248.408554 241.962341,242.407288 
	C243.048553,240.985840 244.080200,239.383224 246.048050,239.010605 
	C255.644867,247.585587 262.651550,285.684814 250.747955,319.072784 
	C256.245575,307.951630 262.402496,297.195618 268.485718,286.392975 
	C271.781738,280.539917 271.735321,273.572113 273.629181,267.204315 
	C283.738373,233.213943 304.977844,209.414505 338.005341,196.300461 
	C340.108734,195.465271 342.232697,194.245224 344.969452,194.919739 
	C346.249786,199.715973 344.811493,204.357498 343.739075,208.951447 
	C336.744476,238.914688 319.886353,262.064667 294.762665,279.451416 
	C292.160156,281.252472 289.703674,283.371216 286.885681,284.735779 
	C274.971069,290.505219 270.576569,301.993378 265.037140,312.752472 
	C283.758942,294.687622 305.457977,284.830505 331.990967,286.615448 
	C332.135040,290.769867 330.285675,293.269379 328.713226,295.713074 
	C310.634216,323.808868 286.317108,343.811646 253.489655,352.042572 
	C246.919693,353.689850 243.792465,356.759949 241.877396,362.998413 
	C237.775848,376.359558 234.028503,389.802338 230.698471,403.367645 
	C230.238403,405.241852 229.781357,407.187653 230.697495,410.235260 
	C241.767700,387.101593 257.783234,369.983521 281.162201,360.629639 
	C284.424255,359.324463 287.701996,357.440216 291.942902,358.224426 
	C290.927917,369.187744 287.206879,379.110352 282.880981,388.772430 
	C273.029144,410.776886 258.115692,428.886261 237.680450,441.519562 
	C227.130020,448.041992 222.941742,455.436310 224.096817,467.751648 
	C225.491653,482.623291 225.633423,497.616913 228.003235,512.422729 
	C228.317535,514.386353 228.315887,516.400635 228.442902,518.148499 
	C232.056015,485.861084 245.200134,458.756622 273.265717,438.738708 
	C274.791260,444.082794 274.973206,448.369995 274.889374,452.537109 
	C274.219635,485.828461 262.940094,515.382385 242.495789,541.420166 
	C238.271942,546.799744 237.102219,551.544006 239.170883,558.169800 
	C243.800446,572.997864 249.481827,587.347412 256.285339,601.280334 
	C256.765228,602.263184 257.053406,603.531982 259.516388,603.839661 
	C253.409378,572.443054 260.088898,544.129150 278.560699,518.639709 
	C281.909790,519.721802 282.127106,521.914673 282.766602,523.721680 
	C292.742310,551.909302 294.147797,580.519409 287.019073,609.570862 
	C285.116425,617.324646 283.377441,625.129578 280.419281,632.557312 
	C279.096680,635.878296 279.526978,638.337158 281.725983,641.210571 
	C294.315887,657.661804 308.140839,672.938049 324.883636,687.556030 
	C306.669098,658.197083 302.265869,628.376038 312.666718,596.740295 
	C316.075226,596.547974 317.107819,598.767212 318.391449,600.338989 
	C336.991882,623.115234 348.294037,648.826050 350.559082,678.438721 
	C351.171021,686.439148 351.165344,694.395081 351.302612,702.373291 
	C351.345490,704.864441 351.778748,706.868469 353.933167,708.436218 
	C371.947571,721.545410 391.322357,732.156250 412.071503,740.259583 
	C412.672272,740.494202 413.354462,740.520386 414.518677,740.318665 
	C388.450989,717.856812 371.439880,690.769165 369.371887,655.390442 
	C373.405914,655.190063 375.921143,656.932617 378.460388,658.351318 
	C407.063843,674.332397 426.903168,698.056213 439.523804,728.023499 
	C442.165649,734.296509 444.307953,740.792480 446.416107,747.271729 
	C447.333466,750.091064 448.852783,751.698059 451.694824,752.562988 
	C471.588898,758.617493 491.454407,764.766113 511.313812,770.933716 
	C513.134827,771.499268 514.795044,771.610901 516.658508,771.027405 
	C536.500488,764.814819 556.350891,758.627991 576.234741,752.551086 
	C579.795837,751.462708 580.409912,748.490601 581.291504,745.707336 
	C585.887268,731.198120 591.731262,717.267761 600.021606,704.442505 
	C613.424683,683.707825 630.907349,667.463074 653.033203,656.344604 
	C654.476257,655.619507 655.828735,654.427063 658.354248,655.284119 
	C658.198181,672.169067 652.610352,687.596313 644.652283,702.337219 
	C636.642090,717.174805 624.970032,728.934814 612.450317,740.030029 
	C634.444641,732.221802 654.790649,721.430359 673.922058,708.282715 
	C675.817383,706.980164 676.156738,705.375061 676.051025,703.145630 
	C674.246094,665.078857 683.970947,630.670898 708.748291,601.114258 
	C710.214111,599.365662 711.421997,597.256653 715.110840,596.169312 
	C718.851501,611.026062 721.184387,625.705383 719.491943,641.059631 
	C717.802734,656.384521 712.183655,670.216064 704.954407,683.650208 
	C717.638855,673.941650 727.826172,661.936951 738.341614,650.175964 
	C745.876709,641.748474 748.850891,634.240051 744.288452,622.439514 
	C737.331482,604.445435 734.424744,585.157288 735.710205,565.630066 
	C736.684509,550.829834 739.277283,536.294373 744.512634,522.330933 
	C744.861389,521.400757 745.306213,520.495850 745.807617,519.638367 
	C746.039429,519.241821 746.515198,518.987854 747.856506,517.817688 
	C766.913879,543.575073 773.245789,571.865417 767.244873,603.080566 
	C770.426147,603.054077 770.705750,601.106384 771.417908,599.744751 
	C779.314575,584.647034 785.636047,568.939087 789.973328,552.428467 
	C790.709900,549.624817 790.185303,547.807678 788.379578,545.688171 
	C769.864868,523.956299 757.072205,499.474396 752.963501,470.914398 
	C751.752869,462.498932 751.306580,454.027649 751.713135,445.526825 
	C751.808044,443.540375 752.126343,441.582336 753.677612,440.136169 
	C771.541504,445.369263 791.658264,478.776733 797.709473,513.657043 
	C799.888733,508.528381 799.924133,503.584473 800.427002,498.898315 
	C801.918091,485.005493 802.955322,471.059631 802.674255,457.051636 
	C802.597839,453.239166 801.298340,450.452881 797.999329,448.310944 
	C782.809387,438.448425 768.958740,427.090057 758.213318,412.281067 
	C746.905884,396.697357 738.939087,379.659729 735.310791,360.684052 
	C735.190002,360.052429 735.227051,359.390594 735.127502,357.625061 
	C749.166138,360.633636 760.593750,367.552979 771.063965,376.209900 
	C781.735291,385.033081 789.551453,396.190308 796.160217,409.369659 
	C797.657593,404.752441 796.150635,401.287964 795.387146,397.986847 
	C792.352173,384.864990 788.868286,371.861664 784.073975,359.230774 
	C782.753296,355.751526 780.940308,353.980896 777.171021,353.104156 
	C741.583435,344.826324 715.407104,323.904602 697.024353,292.729553 
	C696.121399,291.198151 695.066956,289.616364 695.346863,286.855286 
	C723.132996,284.823517 745.646057,295.102356 764.765503,316.402283 
	C757.745422,302.305359 750.905151,290.134857 737.343262,282.119568 
	C710.602539,266.315399 692.739380,243.016891 684.589783,212.737076 
	C683.514893,208.743317 682.921997,204.616852 682.169617,200.540100 
	C681.147217,194.999786 682.295654,193.819321 687.400391,195.789719 
	C714.346924,206.190933 734.763062,223.838165 747.114685,250.254272 
	C751.003784,258.571960 753.878296,267.243195 755.607605,276.280273 
	C756.649414,281.724518 758.898193,286.585419 761.812073,291.357849 
	C767.444397,300.582550 772.788696,310.009766 777.134399,320.024414 
	C773.799438,311.311157 772.290344,302.186646 770.872375,293.074097 
	C769.434143,283.831146 769.411987,274.470520 770.784119,265.230560 
	C772.166321,255.922150 773.725586,246.542725 779.908386,238.847260 
	C783.213379,239.710861 784.607056,242.093979 785.982239,244.276306 
	C796.248169,260.568268 802.504700,278.172180 804.481812,297.465118 
	C806.432922,316.504059 803.150818,334.202332 793.456421,350.675232 
	C792.109497,352.963928 793.203430,354.841156 793.773376,356.852570 
	C796.536804,366.605316 799.674866,376.266296 802.039978,386.113556 
	C804.362244,395.782074 806.521301,405.526245 807.422119,415.775726 
	C807.710266,384.772339 812.421387,355.673035 836.523560,333.031525 
	C839.668823,335.507019 839.881165,338.437073 840.499695,341.083252 
	C846.996399,368.878967 846.488831,396.154938 834.099365,422.455963 
	C829.502808,432.213776 823.146667,440.729553 815.141907,447.971191 
	C813.309021,449.629303 812.248779,451.376343 812.285706,453.988922 
	C812.568359,473.997925 810.379883,493.814789 807.581482,513.708069 
	C816.921631,484.465179 829.479431,457.745636 860.680786,444.353271 
	C862.028809,452.463562 861.367126,459.682526 860.275085,466.851837 
	C856.852295,489.323639 849.102234,509.926727 833.978027,527.348938 
	C826.002441,536.536316 816.637878,543.947754 805.769043,549.299255 
	C801.960144,551.174683 800.014099,553.710754 798.854187,557.666382 
	C795.288757,569.825256 790.494141,581.534180 785.129272,593.010742 
	C784.391602,594.588684 783.225403,596.104126 783.861877,599.472534 
	C793.457031,589.281799 802.088562,579.431274 813.235291,572.462402 
	C824.334106,565.523560 836.030701,560.222473 849.045837,558.948425 
	C850.759155,560.494446 850.036499,561.968506 849.557617,563.339539 
	C836.302124,601.288208 812.716553,629.561829 772.691895,639.878845 
	C760.279724,643.078247 751.108826,647.748352 743.763855,658.004578 
	C736.983582,667.472351 728.294739,675.429138 719.943970,683.581665 
	C718.925781,684.575684 717.568054,685.400330 717.119263,687.779968 
	C743.645142,671.217407 771.052917,659.880615 803.576721,665.539246 
	C801.310547,671.374634 797.754089,675.132385 794.327576,678.843872 
	C774.212402,700.631897 749.988464,714.910828 720.089539,718.049316 
	C708.813110,719.232971 697.473206,718.473999 686.360413,715.905029 
	C683.954895,715.348877 681.842285,715.207825 679.696777,716.631104 
	C664.675293,726.596008 649.072754,735.490662 632.311279,742.244385 
	C631.413574,742.606079 630.645325,743.288940 629.403503,744.088257 
	C633.491150,745.443604 636.854065,743.777527 640.210693,743.074219 
	C664.438782,737.997864 688.405640,737.696899 711.890747,746.707886 
	C715.300110,748.016052 718.558228,749.731567 721.836731,751.358582 
	C722.680786,751.777527 723.336304,752.576477 723.980713,753.118591 
	C723.884827,755.615540 721.937317,756.341980 720.544067,757.339478 
	C702.671631,770.135925 682.648193,777.008057 660.867249,779.456421 
	C642.355408,781.537354 624.395996,779.973511 606.885010,773.453125 
	C599.804138,770.816467 593.273560,767.205444 587.001465,763.075806 
	C585.270447,761.936157 583.636902,761.011169 581.450928,761.695190 
	C564.788696,766.909058 547.988831,771.695496 530.820618,777.875244 
	C539.685364,782.558044 548.094238,786.714905 556.222412,791.362732 
	C567.500244,797.811646 578.635925,804.517639 589.701416,811.326660 
	C597.592407,816.182373 596.963196,824.505798 588.657593,828.956238 
	C586.014099,830.372681 584.294495,829.240479 582.516235,827.475037 
	C564.638245,809.725403 543.369751,797.181152 520.599670,786.843628 
	C515.661194,784.601624 511.611145,784.470337 506.534851,786.907104 
	C484.595093,797.439087 464.479309,810.603455 446.243225,826.693542 
	C441.194702,831.147888 438.525848,830.841553 434.431671,825.597290 
	C430.269928,820.266418 430.627106,816.690552 436.234497,813.232666 
	C449.984253,804.753479 463.861786,796.481323 478.013611,787.954041 
z"/>
<path fill="#000000" opacity="1.000000" stroke="none" 
	d="
M498.335266,523.000122 
	C498.336304,537.499939 498.415283,551.500549 498.283661,565.499146 
	C498.250305,569.047668 498.861938,572.464722 499.509918,575.876160 
	C500.406677,580.597534 503.889526,583.192810 508.289642,583.540955 
	C530.694031,585.313293 553.184509,586.666016 575.258667,581.114746 
	C590.285950,577.335571 600.486145,566.726196 609.083069,554.475159 
	C613.390503,548.336914 617.190552,541.871277 620.637817,535.201843 
	C622.542114,531.517517 632.001770,529.380005 635.201599,531.828430 
	C636.699219,532.974426 636.334961,534.503662 635.999207,535.932190 
	C630.677063,558.574158 625.330505,581.210449 619.963074,603.841797 
	C619.214111,607.000061 617.355896,608.402649 613.871704,608.398499 
	C547.039185,608.318604 480.206635,608.332825 413.374054,608.367065 
	C410.023499,608.368835 407.483063,608.061096 407.566528,603.645630 
	C407.642548,599.623108 407.268707,596.049011 412.957031,595.597717 
	C419.127930,595.108154 424.970917,593.135071 430.347351,589.888794 
	C442.161987,582.755188 445.542969,571.365479 445.578674,558.688232 
	C445.761261,493.856018 445.770599,429.023285 445.770660,364.190704 
	C445.770660,354.556702 446.552124,344.917755 444.746246,335.297119 
	C441.898224,320.124847 432.284607,312.005432 417.948547,308.466766 
	C416.496796,308.108398 415.020386,307.846191 413.550079,307.567505 
	C408.226624,306.558594 406.541718,303.775452 407.905426,298.549744 
	C408.571594,295.997070 410.395721,295.741241 412.506561,295.741425 
	C418.173126,295.741943 423.839691,295.725494 429.506256,295.724213 
	C462.339203,295.716827 495.172180,295.708618 528.005127,295.711365 
	C531.146179,295.711639 534.425720,295.083527 534.420288,300.191895 
	C534.412964,307.180328 534.260864,307.733643 528.226074,308.339966 
	C510.228210,310.148132 498.374603,322.916840 498.352356,341.002411 
	C498.277893,401.501556 498.330872,462.000824 498.335266,523.000122 
z"/>
</svg>