<svg version="1.1" id="Layer_1" xmlns="http://www.w3.org/2000/svg" xmlns:xlink="http://www.w3.org/1999/xlink" x="0px" y="0px"
	 width="100%" viewBox="0 0 496 496" enable-background="new 0 0 496 496" xml:space="preserve">
<path fill="#000000" opacity="1.000000" stroke="none" 
	d="
M267.740112,384.242950 
	C274.800385,388.396393 281.549011,392.360199 288.275970,396.360565 
	C290.056152,397.419220 291.628998,398.725555 291.169830,401.121857 
	C290.803680,403.032684 289.688873,404.468384 287.843689,405.192139 
	C285.891052,405.958038 284.746765,404.574005 283.533356,403.435394 
	C275.297058,395.706696 265.716949,390.090515 255.557236,385.294006 
	C252.357651,383.783447 249.706985,383.956482 246.612869,385.471313 
	C236.820679,390.265564 227.832489,396.238312 219.606232,403.351868 
	C217.210236,405.423798 215.178528,406.951508 212.576736,403.671570 
	C209.836365,400.216949 211.698837,398.275116 214.620911,396.540588 
	C221.783661,392.288879 228.950821,388.044464 236.101791,383.772980 
	C237.766006,382.778870 239.809875,382.264435 241.144073,379.598358 
	C233.218506,377.248413 225.504135,374.857086 217.718033,372.728058 
	C215.852173,372.217865 214.390747,374.017426 212.835648,374.912048 
	C194.869980,385.247528 166.019089,383.150055 149.947357,370.287384 
	C149.457611,369.895416 149.116058,369.318329 148.261841,368.297455 
	C162.348770,360.136505 176.914093,360.535187 191.982178,363.168701 
	C188.265457,361.347443 184.487152,359.640167 180.848938,357.673645 
	C177.043152,355.616547 173.377487,353.300995 169.639679,351.117065 
	C167.914978,350.109344 166.157181,350.624176 164.315445,350.867096 
	C142.587692,353.733429 125.203369,345.915955 111.524704,329.164886 
	C110.809540,328.289093 110.008255,327.358978 110.465752,325.337158 
	C125.403336,322.535889 138.388870,328.047058 150.995331,335.544342 
	C144.835327,329.647705 139.455856,323.140198 133.883087,316.809235 
	C132.342224,315.058746 130.323654,314.643829 128.115738,314.261902 
	C108.769592,310.915070 90.468323,292.945496 87.163368,273.403320 
	C101.192879,274.685303 110.540367,282.871826 119.107712,292.632965 
	C116.606537,285.589203 113.259186,278.932251 111.338127,271.741852 
	C110.923058,270.188324 109.365822,269.582275 108.034988,268.874420 
	C91.305710,259.975983 84.285110,244.937256 81.660492,227.127228 
	C81.563675,226.470230 81.596069,225.795029 81.517693,225.134308 
	C81.235054,222.751678 79.558990,219.726364 82.234154,218.287140 
	C84.678802,216.971893 86.810890,219.640594 88.767830,221.003998 
	C98.140335,227.533844 102.735847,237.254242 106.478683,247.689423 
	C105.129074,239.472839 105.827232,231.214157 105.610580,222.977127 
	C105.555168,220.870544 104.017670,219.777054 102.761497,218.478455 
	C87.703415,202.911896 87.457115,184.364655 91.994629,164.868408 
	C92.091866,164.450592 92.593712,164.126938 93.494301,163.069672 
	C103.832130,171.811783 106.552399,183.696838 108.039024,197.275482 
	C110.280289,189.159256 112.051682,182.259201 114.135986,175.455017 
	C114.884293,173.012207 113.821098,171.315491 112.937515,169.350830 
	C105.033913,151.776932 108.366272,135.289871 117.881973,119.435654 
	C118.483070,118.434166 119.305672,117.576912 121.293976,117.196945 
	C127.410461,127.918617 127.307594,139.342316 124.867683,151.200882 
	C127.826836,145.832626 131.531067,141.006699 132.924713,134.689346 
	C136.700623,117.573280 146.440521,104.874985 162.443283,97.276367 
	C165.226913,95.954613 165.257828,96.019730 168.807053,95.950676 
	C170.186493,99.659584 168.553146,103.106842 167.513321,106.492264 
	C163.041672,121.050858 153.548615,131.689926 140.818634,139.565765 
	C136.519836,142.225357 133.505020,145.678818 131.233887,151.481186 
	C138.621735,145.312561 146.075699,141.623428 154.566284,140.288971 
	C155.552261,140.134003 156.542252,139.910538 157.532562,139.898605 
	C159.148743,139.879105 161.105759,139.302002 162.107407,141.023926 
	C163.112885,142.752487 161.657059,144.223907 160.800980,145.550186 
	C152.364105,158.620972 140.935135,167.947327 125.858963,172.173492 
	C121.625069,173.360352 119.362411,175.328903 118.218819,179.503616 
	C116.519302,185.707657 114.532730,191.827423 113.114174,199.621307 
	C120.414581,186.975754 129.125381,178.216080 142.150635,174.857635 
	C143.829086,177.143951 142.782166,178.709656 142.379028,180.245270 
	C138.214188,196.110016 129.154343,208.494949 115.373207,217.282913 
	C111.529251,219.734131 110.154655,222.598007 110.211906,227.118896 
	C110.306145,234.559219 111.011368,241.900620 111.919312,249.276688 
	C114.971291,235.375275 121.183449,223.620819 133.546768,214.710129 
	C135.952164,221.132462 134.579178,226.768341 133.831192,232.173294 
	C132.151276,244.312683 126.913361,255.082031 119.276634,264.594360 
	C116.896538,267.559021 116.541695,270.347809 117.668640,273.771332 
	C119.993240,280.833282 122.517822,287.793610 126.860779,295.456940 
	C124.145592,279.360779 127.420998,266.016632 136.403580,253.679184 
	C139.285233,255.639221 139.502396,258.277802 140.195877,260.535095 
	C144.907883,275.872833 143.686996,291.099030 138.688858,306.083740 
	C137.324265,310.174927 137.724899,313.091339 140.548462,316.478302 
	C145.634415,322.579102 151.022781,328.322937 157.813904,334.653595 
	C149.650192,320.291840 148.455048,306.525543 152.901276,292.140930 
	C155.877625,292.343048 156.611176,294.233856 157.706985,295.601074 
	C168.035095,308.487762 172.535355,323.370850 172.253647,339.706360 
	C172.182114,343.854279 173.436829,346.520325 176.907761,348.745361 
	C184.632584,353.697418 192.528076,358.244354 202.335281,361.753723 
	C189.744354,350.211243 181.497940,337.582062 180.695282,321.083893 
	C183.651672,319.936523 185.361191,321.585876 187.092987,322.656006 
	C202.342148,332.078735 212.463989,345.547394 217.770737,362.560822 
	C218.867203,366.076050 220.714661,367.871399 224.092331,368.658539 
	C226.519485,369.224213 229.130661,369.613220 231.244690,370.812622 
	C248.514771,380.610748 264.671387,373.378754 280.994873,367.880768 
	C283.782776,366.941742 284.020721,364.564331 284.742737,362.434937 
	C290.092773,346.656433 299.010040,333.521698 313.068848,324.227722 
	C315.657074,322.516693 318.185150,320.484039 322.211823,320.391724 
	C321.345734,336.656006 313.716309,349.162659 302.364960,360.025604 
	C312.102570,357.051910 320.766846,352.121613 328.980499,346.312469 
	C330.764984,345.050415 330.438660,343.219025 330.389679,341.337830 
	C329.969238,325.202087 333.923035,310.349152 343.696503,297.293274 
	C345.155396,295.344391 346.306915,292.991791 349.559143,291.920227 
	C354.482971,306.093292 352.792847,319.475891 345.539673,333.246552 
	C353.055237,327.089111 358.714142,320.456451 364.067322,313.493164 
	C365.720062,311.343353 365.149963,309.502472 364.434326,307.451080 
	C360.720917,296.805908 358.752777,285.879059 359.713013,274.597839 
	C360.312744,267.551636 361.237854,260.506927 364.642731,254.035751 
	C373.095978,258.738434 378.567810,279.350189 375.889923,294.178070 
	C380.577148,286.816772 383.777649,278.823059 385.688263,270.292053 
	C386.243225,267.814178 384.494446,266.236481 383.168121,264.575989 
	C373.642822,252.650665 368.062225,239.200882 367.213257,223.872269 
	C367.055603,221.026459 367.015869,218.244080 368.696136,214.863297 
	C380.580170,222.831970 387.088379,233.816025 389.696381,247.502350 
	C391.332306,243.583633 392.624237,225.955200 391.675171,222.202377 
	C391.015411,219.593506 388.690887,218.717773 386.832672,217.438293 
	C373.867889,208.511337 364.954987,196.644623 360.483887,181.508133 
	C360.155426,180.396149 359.852142,179.267273 359.668732,178.125122 
	C359.542725,177.340530 359.644592,176.519333 359.644592,174.883804 
	C373.606812,178.688431 382.627441,187.489227 389.674286,199.086761 
	C387.996155,192.854034 386.217285,186.646118 384.673187,180.380356 
	C383.531799,175.748672 381.085907,173.378326 376.159607,172.062164 
	C360.956848,168.000488 349.958099,158.053406 341.472534,145.117706 
	C340.765320,144.039627 340.418457,142.725143 339.917419,141.551422 
	C346.800018,137.431900 362.812286,143.017334 372.857391,153.493393 
	C369.684845,147.195679 366.870087,142.532898 361.612854,139.356644 
	C347.973938,131.116455 338.324524,119.646591 334.341919,103.864540 
	C333.680481,101.243362 333.557678,98.703621 333.636261,96.268730 
	C335.731689,95.042915 337.219116,96.110901 338.673370,96.766815 
	C352.917236,103.191185 363.324585,113.451714 367.711761,128.566223 
	C370.153564,136.978622 373.676910,144.690109 378.362183,152.749130 
	C376.101868,140.272446 374.292603,128.363052 380.964600,117.185974 
	C383.975647,118.036804 384.887939,120.145203 385.881104,121.992401 
	C394.250549,137.558304 397.082031,153.542679 389.092621,170.196960 
	C388.070831,172.326935 388.153137,174.318344 388.844604,176.469742 
	C391.282654,184.055374 393.168518,191.781006 394.478729,200.069016 
	C395.263336,186.014786 397.799316,173.127853 409.179138,162.522583 
	C412.982239,171.539871 413.925018,179.919769 412.987732,188.526642 
	C411.710571,200.254150 407.870239,210.878952 398.903595,219.099548 
	C397.706482,220.197037 397.293518,221.568909 397.341858,223.147369 
	C397.596710,231.471390 396.731720,239.712677 395.534668,248.038376 
	C400.222961,234.997849 406.263123,223.174637 420.582092,217.530090 
	C422.238098,223.974625 420.752991,229.443146 419.494232,234.900574 
	C416.055939,249.807556 407.894623,261.274841 394.424225,268.730896 
	C392.531952,269.778290 391.407623,271.080963 390.688904,273.089691 
	C388.504486,279.194977 386.154541,285.241058 383.509430,292.265137 
	C392.648193,282.823364 401.569916,274.381775 414.678558,273.539337 
	C415.834717,275.290039 415.357452,276.599670 414.870880,277.793182 
	C406.949524,297.222809 394.033234,310.897369 372.378662,314.329346 
	C370.356232,314.649902 369.076569,315.726685 367.862488,317.129761 
	C363.073975,322.663696 358.283417,328.195862 352.857056,334.463989 
	C365.369690,327.382294 377.668365,322.670898 391.491150,325.209106 
	C392.806274,327.571014 391.104156,328.897430 390.003601,330.191681 
	C376.266785,346.345825 359.132233,353.930664 337.770874,350.665802 
	C335.619873,350.337067 333.524353,349.930420 331.501343,351.260864 
	C324.576874,355.814667 317.268402,359.688416 309.749176,363.242249 
	C324.836578,361.048737 339.760193,359.417328 353.594116,367.490753 
	C353.670868,369.924866 352.278748,370.725983 351.053284,371.456024 
	C330.719513,383.568665 309.908478,386.021332 288.573486,374.157654 
	C286.322083,372.905701 284.445709,372.539673 282.047699,373.330200 
	C275.170410,375.597351 268.242584,377.711243 260.947021,380.007385 
	C263.101135,382.350220 265.434265,382.922485 267.740112,384.242950 
z"/>
<path fill="#000000" opacity="1.000000" stroke="none" 
	d="
M251.952637,144.665558 
	C254.278793,144.681931 256.111877,144.692184 257.944733,144.716614 
	C259.805725,144.741409 261.178650,145.270782 261.267029,147.507858 
	C261.352325,149.667099 260.657593,150.986923 258.322968,151.287109 
	C254.252029,151.810577 250.545914,153.280075 247.753113,156.392044 
	C245.063034,159.389572 244.222763,163.070999 244.227768,167.040512 
	C244.274536,204.204163 244.319870,241.367874 244.277573,278.531494 
	C244.272629,282.865143 246.300720,285.375305 250.374771,285.489838 
	C258.849426,285.728180 267.333984,286.098694 275.814484,285.063324 
	C286.068909,283.811401 293.297974,278.273254 298.594147,269.767487 
	C300.266876,267.081024 301.881836,264.357574 303.475647,261.623291 
	C305.013367,258.985291 307.512329,259.368500 309.669617,260.032471 
	C312.263519,260.830872 310.957428,262.954559 310.561981,264.651642 
	C308.375214,274.036377 306.081879,283.398315 304.060577,292.818573 
	C303.247864,296.606262 301.316833,297.959320 297.487457,297.947174 
	C266.656464,297.849365 235.824936,297.915222 204.993683,297.863373 
	C202.822769,297.859711 199.923065,298.564941 199.367615,295.225830 
	C198.773697,291.655426 201.641388,291.362091 204.071869,290.738770 
	C213.729172,288.262207 217.630737,283.281219 217.659805,273.228821 
	C217.757095,239.564575 217.724396,205.899567 217.950592,172.236267 
	C218.029510,160.489960 214.293274,152.278961 202.548492,151.014771 
	C200.388855,150.782318 199.483398,149.298859 199.773529,147.073334 
	C200.127472,144.358322 202.216873,144.716675 203.963013,144.711487 
	C219.795074,144.664520 235.627304,144.673248 251.952637,144.665558 
z"/>
</svg>