<svg version="1.1" id="Layer_1" xmlns="http://www.w3.org/2000/svg" xmlns:xlink="http://www.w3.org/1999/xlink" x="0px" y="0px"
	 width="100%" viewBox="0 0 1024 1024" enable-background="new 0 0 1024 1024" xml:space="preserve">
<path fill="#000000" opacity="1.000000" stroke="none" 
	d="
M448.558044,306.559967 
	C446.132202,309.687714 443.930725,312.542267 441.729218,315.396820 
	C450.085449,309.978149 457.513733,303.073700 468.291138,303.032990 
	C470.828766,303.023438 473.232239,303.338470 475.781311,304.138031 
	C476.013580,306.899506 474.208893,308.560364 472.688599,310.143097 
	C466.562286,316.520996 459.540009,321.254883 450.446228,322.479462 
	C436.372620,324.374603 427.004547,331.792877 423.266571,345.929138 
	C421.867523,351.220154 420.303101,356.450867 419.609100,362.042175 
	C426.533478,347.511108 433.732025,333.355347 453.776581,333.014526 
	C450.533936,341.254547 447.020996,348.437408 440.148804,353.430573 
	C438.537537,354.601257 436.838989,355.696381 435.059967,356.584747 
	C417.776947,365.215363 418.310120,369.972290 419.921875,389.127533 
	C420.394104,394.740112 422.101166,400.202454 424.436646,406.344971 
	C425.411407,397.815796 423.777527,389.928986 425.778442,382.327271 
	C427.840210,374.494415 431.577972,367.834717 439.737823,363.934326 
	C441.784668,374.960022 442.176239,385.331604 435.497925,394.997589 
	C425.233185,409.854584 425.784027,417.837036 437.865173,431.407715 
	C441.677856,435.690399 445.886597,439.620514 450.335541,443.454407 
	C441.568970,428.878052 433.436890,414.408295 444.021179,396.558380 
	C449.154633,402.317932 451.731262,408.612091 453.282776,415.407532 
	C454.555115,420.980255 454.444000,426.641083 454.174286,432.307220 
	C453.650726,443.306213 457.167114,451.802917 468.227356,456.121613 
	C473.622223,458.228149 478.843384,460.769257 484.825073,462.052185 
	C471.893097,453.713501 463.962982,442.856506 466.082520,425.907990 
	C474.397034,429.404907 480.186920,434.791168 484.266815,442.024902 
	C486.139130,445.344574 487.744446,448.866058 489.035614,452.452728 
	C493.051422,463.608032 501.983185,468.337738 512.689880,468.345612 
	C522.793884,468.353027 531.973694,464.559967 536.505981,454.074219 
	C539.800354,446.452362 542.510132,438.462097 549.122009,432.796478 
	C552.242676,430.122406 555.279297,427.308990 559.836121,426.368164 
	C562.277893,441.339630 555.747070,451.856140 544.277161,460.339661 
	C551.987732,458.579010 559.300049,456.277863 565.251038,451.367340 
	C570.159729,447.316864 571.544250,441.385223 571.709167,435.178741 
	C571.903015,427.880493 570.832214,420.526794 572.813904,413.305389 
	C574.449646,407.344482 577.036377,401.910431 580.741943,396.839813 
	C589.639954,405.767212 587.742920,421.519287 575.755310,442.140564 
	C582.044861,438.252075 590.902344,428.869690 594.020447,422.627655 
	C598.483704,413.692932 597.533997,405.158936 591.554688,397.303253 
	C583.995911,387.372253 583.812927,376.205383 585.200073,364.497925 
	C599.046997,369.388947 602.068176,382.092407 600.504333,406.820404 
	C604.334961,399.660950 607.771057,381.234955 606.509338,373.882141 
	C605.281311,366.725830 600.946594,361.732269 594.536316,358.884460 
	C583.991089,354.199677 577.366333,346.043457 572.744629,335.876740 
	C572.484558,335.304749 572.338684,334.680908 571.900757,333.361176 
	C580.356567,332.957520 587.045410,335.845978 592.979736,340.936157 
	C599.003662,346.103210 600.886536,353.888306 605.065613,360.550964 
	C606.804138,343.369019 594.855896,326.466064 578.489014,323.147186 
	C568.534912,321.128662 559.788940,317.293793 553.244812,309.278290 
	C552.115540,307.895081 550.643311,306.644958 550.727112,304.598022 
	C560.446838,300.775177 567.204895,303.201782 585.884949,317.640961 
	C580.989136,310.386505 576.643127,304.489349 570.106262,300.559906 
	C561.747131,295.535187 556.918335,288.084595 555.112915,278.584229 
	C554.927368,277.607880 554.721436,276.616699 554.712585,275.630737 
	C554.703918,274.664124 554.934875,273.695374 555.128296,272.207336 
	C564.425781,274.856781 571.846191,280.115387 574.784180,288.719543 
	C579.022888,301.132874 587.135010,310.579834 595.443359,320.309753 
	C588.411804,308.164459 584.602783,295.626587 590.254456,281.236908 
	C600.544006,290.540741 604.319275,301.668274 601.725342,314.414246 
	C600.187439,321.971008 600.313599,328.742737 603.802368,335.670013 
	C606.417542,340.862579 608.038696,346.510742 609.757812,352.253021 
	C607.072815,337.282532 607.980591,323.133331 618.956665,310.130737 
	C622.735596,318.081665 624.147339,325.483185 622.905090,333.364349 
	C621.957520,339.376038 619.579895,344.830353 616.323120,349.947693 
	C612.826843,355.441284 611.297180,361.333862 611.923828,367.968445 
	C612.466370,373.713196 612.810242,379.544861 611.856201,385.466034 
	C615.284912,371.172180 619.874451,357.750336 635.018066,350.112793 
	C636.185974,361.884613 634.692444,372.995392 626.252747,380.077057 
	C613.195618,391.033203 605.950378,404.735199 601.699768,421.141632 
	C611.011780,409.237030 619.869751,396.846741 636.555908,395.090363 
	C634.220093,410.266663 622.135071,422.509613 605.774597,426.223145 
	C600.514404,427.417145 596.440735,430.093079 592.731201,433.950256 
	C587.316284,439.580658 581.475098,444.801025 576.185120,450.747955 
	C589.423035,442.806580 602.451111,434.937317 618.955994,439.870575 
	C612.598755,451.052643 596.473450,459.086639 583.379150,457.042053 
	C574.708069,455.688141 566.911865,457.067017 559.349915,461.248688 
	C556.190918,462.995575 552.778748,464.284576 549.501953,466.207184 
	C555.903564,465.754883 562.271912,465.211182 568.525146,466.893768 
	C574.827393,468.589630 580.425659,471.626709 586.246521,475.841766 
	C572.030823,481.737030 558.529053,484.023163 544.807251,476.856323 
	C540.655090,474.687622 536.414551,472.973450 531.750244,472.083221 
	C529.435547,471.641479 527.536865,471.996429 524.761169,472.843536 
	C529.660461,475.188660 534.013428,477.463013 536.549194,481.887329 
	C537.584106,483.692993 539.421753,485.548615 537.023499,487.601929 
	C534.662964,489.622864 532.644958,489.167206 530.644714,486.799133 
	C529.376709,485.297882 527.714355,484.064056 526.059387,482.965820 
	C514.930298,475.580444 508.616577,476.062042 497.216919,484.883453 
	C495.907440,485.896759 494.822693,487.195312 493.578125,488.298920 
	C491.965729,489.728729 490.493988,488.935486 489.093781,487.877228 
	C487.595673,486.745026 487.777588,485.425781 488.549896,483.907776 
	C491.163452,478.770844 495.143951,475.215729 501.184540,473.246216 
	C496.486603,470.555328 492.497864,472.342041 488.634460,473.681122 
	C482.214935,475.906189 476.387817,479.586670 469.541931,480.876343 
	C463.242981,482.062958 449.608704,480.639526 441.155334,475.553741 
	C451.481628,467.381897 462.879028,464.445435 475.695099,466.009857 
	C465.461700,460.761292 455.917572,454.560394 443.161407,456.991608 
	C427.682983,459.941681 416.690796,451.220551 406.052582,439.928497 
	C421.887543,435.990021 434.599335,440.579102 446.604279,449.161407 
	C437.256042,440.335419 431.119751,428.293762 416.814697,425.226654 
	C401.173981,421.873169 393.485748,409.876984 388.526550,394.942932 
	C404.092834,396.796967 413.343353,406.941589 422.230713,417.928375 
	C418.205658,407.037476 417.310577,395.029480 406.982239,387.335571 
	C394.868744,378.311768 389.666473,365.864075 390.832092,350.022949 
	C404.973541,357.002319 410.248047,369.201172 413.138641,383.115479 
	C413.428619,370.514801 415.420624,358.128296 407.685364,346.314819 
	C400.564667,335.440002 400.779175,323.129578 406.697296,310.093933 
	C417.530487,322.787994 419.102814,336.553314 416.343414,351.393799 
	C416.869843,349.838409 417.319672,348.251984 417.934845,346.732513 
	C422.663544,335.053223 427.366211,323.844574 424.012848,310.284576 
	C421.241882,299.079590 426.999176,289.378967 436.025024,281.101837 
	C440.585602,294.697144 438.393402,306.755005 431.919342,318.492523 
	C438.377777,310.024048 446.675446,303.102966 449.777100,292.163849 
	C452.687805,281.898224 460.240875,275.546844 471.037720,271.954987 
	C471.625702,282.293304 467.944733,290.203186 460.803040,296.587524 
	C456.969543,300.014526 452.800201,303.065887 448.558044,306.559967 
z"/>
<path fill="#000000" opacity="1.000000" stroke="none" 
	d="
M626.286743,540.779419 
	C644.248108,540.717834 661.738403,540.663208 679.228271,540.720825 
	C681.141235,540.727173 683.831116,539.752747 684.238586,543.193665 
	C684.630310,546.501404 681.983582,546.324829 680.049744,546.930359 
	C674.294495,548.732544 672.674805,552.086853 675.361755,558.157104 
	C680.682861,570.178284 686.262085,582.085876 691.791626,594.014038 
	C700.332153,612.437134 708.913269,630.841431 717.504089,649.241150 
	C718.119202,650.558716 718.490906,652.105835 720.401306,652.977112 
	C722.980164,650.200989 724.078125,646.521790 725.510315,643.105103 
	C735.093750,620.242676 744.600464,597.348022 754.067139,574.437012 
	C755.652771,570.599609 757.231934,566.712341 758.273804,562.707520 
	C760.401367,554.529358 757.799683,550.031006 749.542114,548.789001 
	C744.269714,547.996033 743.724426,545.616882 745.117493,541.251831 
	C745.687744,541.097534 746.308960,540.784058 746.931152,540.782227 
	C765.253662,540.729309 783.576294,540.698059 801.898865,540.695129 
	C803.704529,540.694824 805.768188,540.495117 805.922852,543.215576 
	C806.055725,545.551575 804.492981,546.579285 802.603638,546.896606 
	C787.851501,549.374329 779.906250,559.438293 773.771240,571.960205 
	C757.874573,604.406189 743.098206,637.360657 728.514526,670.406860 
	C727.690369,672.274353 727.315674,674.172852 727.334045,676.215515 
	C727.387939,682.211731 727.289734,688.209656 727.367310,694.205322 
	C727.508728,705.135559 732.929932,711.950684 743.644653,714.442810 
	C746.123413,715.019348 748.275757,715.369141 747.988342,718.609680 
	C747.689697,721.976807 745.096985,721.275085 743.083252,721.279419 
	C723.760559,721.320984 704.437683,721.305969 685.114868,721.282898 
	C682.999023,721.280334 680.600891,721.704041 680.169739,718.524292 
	C679.731018,715.289490 681.921692,714.503296 684.321533,714.107544 
	C695.910461,712.196289 699.225769,706.545715 700.126404,695.051880 
	C700.894958,685.242981 699.915039,675.888733 695.367615,666.531738 
	C680.893799,636.749329 667.302490,606.538452 653.320740,576.516052 
	C650.511658,570.484070 647.699707,564.447815 643.881592,558.938599 
	C639.558960,552.701538 634.182739,548.098511 626.558167,546.347229 
	C622.924133,545.512573 622.770081,543.602234 626.286743,540.779419 
z"/>
<path fill="#000000" opacity="1.000000" stroke="none" 
	d="
M493.562195,575.570496 
	C507.309052,611.836914 520.916931,647.741272 534.736389,684.203857 
	C537.170105,682.206909 537.551819,680.032959 538.223267,678.137207 
	C551.441956,640.814087 564.612061,603.473877 577.765381,566.127686 
	C578.481934,564.093262 579.183105,562.011108 579.517395,559.892151 
	C580.539612,553.413330 577.866882,549.700439 571.470032,548.389893 
	C570.333801,548.157043 569.187378,547.962952 568.064758,547.676453 
	C565.740234,547.083008 565.651123,545.269287 565.724792,543.339417 
	C565.813416,541.020996 567.400452,540.741028 569.177368,540.738525 
	C583.340027,540.718445 597.502625,540.703674 611.665283,540.710938 
	C613.002197,540.711609 614.551880,540.744751 614.830811,542.447144 
	C615.117310,544.196533 614.618469,546.046692 612.785156,546.569336 
	C599.241394,550.430481 595.473389,562.002686 591.326477,573.367065 
	C574.102539,620.567993 556.756531,667.724670 539.697327,714.984985 
	C537.911621,719.932007 535.523865,721.608276 530.326111,721.415466 
	C517.998901,720.958069 520.661316,722.392456 516.891785,712.357239 
	C498.691467,663.904419 478.970673,616.048157 460.335785,567.767090 
	C456.120148,556.844788 449.603699,548.614136 437.408630,546.447021 
	C435.368286,546.084473 434.511688,545.292664 434.653717,543.189392 
	C434.815674,540.791199 436.416473,540.700134 438.158905,540.699402 
	C457.153870,540.691589 476.148834,540.682190 495.143799,540.695984 
	C496.824066,540.697205 498.693024,540.691345 498.806610,543.053894 
	C498.900543,545.007935 498.279816,546.451050 496.130585,547.270630 
	C486.777557,550.837219 485.588806,553.462402 488.870422,563.061340 
	C490.268616,567.151245 491.898560,571.161865 493.562195,575.570496 
z"/>
<path fill="#000000" opacity="1.000000" stroke="none" 
	d="
M260.016235,597.000000 
	C260.014801,627.818665 260.004425,658.137268 260.026001,688.455933 
	C260.028259,691.618408 259.996918,694.807922 260.377991,697.936523 
	C260.892670,702.162231 263.241852,705.389648 267.676208,705.509216 
	C280.637177,705.858459 293.625031,706.361145 306.504120,704.062927 
	C317.855469,702.037354 324.644287,694.257141 330.509613,685.267151 
	C331.146027,684.291687 331.724609,683.278442 332.325684,682.280151 
	C333.540863,680.261963 335.381622,680.469849 337.164917,681.102112 
	C339.075043,681.779419 339.249908,683.286072 338.967285,685.175354 
	C337.347534,696.003845 335.676514,706.829834 334.386383,717.699768 
	C333.898834,721.807739 331.306183,721.330566 328.674561,721.331909 
	C301.520813,721.345581 274.367065,721.343994 247.213333,721.347839 
	C238.384201,721.349060 229.554703,721.397461 220.726242,721.322388 
	C218.734985,721.305420 216.221954,722.055908 215.738266,718.718994 
	C215.278427,715.546692 217.226837,714.862671 219.641739,714.104553 
	C229.651901,710.961975 233.068298,706.341309 233.111313,692.532104 
	C233.243607,650.064453 233.001282,607.594604 232.681244,565.127319 
	C232.597641,554.033813 229.865784,550.735901 219.249283,547.832581 
	C215.443420,546.791748 215.234680,544.597168 215.547714,541.683716 
	C216.874023,540.362732 218.449478,540.694336 219.904526,540.692139 
	C237.229553,540.666199 254.554840,540.636963 271.879486,540.722351 
	C273.939331,540.732544 276.951508,539.643433 277.226776,543.390015 
	C277.480804,546.847656 274.590088,546.724487 272.464264,547.236572 
	C264.507996,549.153198 260.492706,553.765930 260.318909,562.020142 
	C260.076935,573.510437 260.104340,585.006470 260.016235,597.000000 
z"/>
<path fill="#000000" opacity="1.000000" stroke="none" 
	d="
M371.032898,540.675171 
	C386.182404,540.674866 400.838745,540.621155 415.493744,540.737122 
	C417.520599,540.753113 420.591522,539.448242 421.111877,543.055481 
	C421.617798,546.562317 418.941376,546.864685 416.380554,547.454163 
	C408.676697,549.227600 404.424347,554.294128 404.405975,562.509583 
	C404.305786,607.309753 404.274811,652.110657 404.433685,696.910522 
	C404.468506,706.729980 408.431519,711.602844 417.679077,714.376709 
	C420.200989,715.133179 421.486938,716.090332 421.096161,718.794067 
	C420.673859,721.715637 418.432709,721.317017 416.495667,721.320190 
	C399.508209,721.347900 382.520599,721.355835 365.533173,721.319519 
	C363.453033,721.315063 361.082672,721.738281 360.753876,718.417847 
	C360.475220,715.603333 361.929871,714.499207 364.264374,713.937683 
	C376.824799,710.916687 377.263092,706.333618 377.402649,695.406616 
	C377.961914,651.612488 377.695251,607.807068 377.590546,564.006104 
	C377.568573,554.804932 373.659943,549.926941 365.172058,547.618591 
	C362.829803,546.981628 360.473022,546.784851 360.744110,543.468811 
	C361.052399,539.697083 363.969421,540.943237 366.046387,540.708191 
	C367.526306,540.540710 369.040436,540.675537 371.032898,540.675171 
z"/>
<path fill="#000000" opacity="1.000000" stroke="none" 
	d="
M512.340820,393.778381 
	C512.476746,403.864197 514.237915,405.636993 523.686829,405.658234 
	C526.184204,405.663818 528.683594,405.595917 531.178528,405.674530 
	C537.266541,405.866364 542.287415,404.026642 545.560425,398.529083 
	C546.194336,397.464386 546.769531,395.962158 548.543335,396.513062 
	C550.139709,397.008881 550.247925,398.369720 550.266052,399.744965 
	C550.268250,399.911407 550.265564,400.078247 550.275940,400.244232 
	C551.097595,413.407867 551.097717,413.402588 537.901001,413.392914 
	C522.417419,413.381592 506.933716,413.404053 491.450348,413.338501 
	C489.928345,413.332062 487.680023,414.078552 487.173431,411.915161 
	C486.598785,409.461182 489.147522,409.505005 490.517853,409.171539 
	C496.659851,407.676849 497.426971,402.611267 497.499695,397.861176 
	C497.772461,380.051117 497.718506,362.233093 497.532288,344.420746 
	C497.479156,339.341644 495.866577,334.864044 489.740356,333.884705 
	C488.056732,333.615570 486.516327,332.615265 487.014038,330.439423 
	C487.475372,328.422607 489.259277,328.718964 490.681335,328.712463 
	C500.004517,328.669739 509.328064,328.674316 518.651245,328.721344 
	C520.067383,328.728455 521.814575,328.450012 522.113953,330.616608 
	C522.372192,332.485748 521.299805,333.583862 519.677429,333.778412 
	C512.414673,334.649170 512.456665,340.248474 512.400879,345.361359 
	C512.226501,361.342560 512.338257,377.326935 512.340820,393.778381 
z"/>
</svg>