<svg version="1.1" id="Layer_1" xmlns="http://www.w3.org/2000/svg" xmlns:xlink="http://www.w3.org/1999/xlink" x="0px" y="0px"
	 width="100%" viewBox="0 0 2048 2048" enable-background="new 0 0 2048 2048" xml:space="preserve">
<path fill="#18BDFB" opacity="1.000000" stroke="none" 
	d="
M374.000000,1.000001 
	C807.699402,1.000000 1241.398804,1.000000 1675.209106,1.340824 
	C1676.329590,2.119020 1677.306030,2.822199 1678.353638,2.951918 
	C1687.114136,4.036624 1696.049438,4.282618 1704.623779,6.177208 
	C1723.388306,10.323423 1742.086060,14.879118 1760.597412,20.034412 
	C1780.067383,25.456659 1798.819214,32.975784 1816.754883,42.358677 
	C1829.036499,48.783710 1841.488403,54.973183 1853.279785,62.219120 
	C1864.608643,69.180763 1875.629517,76.814865 1885.983032,85.150497 
	C1899.768066,96.248634 1912.776123,108.311615 1925.700928,120.045395 
	C1922.817139,120.420410 1920.350586,120.963844 1917.883911,120.963997 
	C1322.676758,121.000885 727.469727,121.001259 132.262634,120.957062 
	C129.468216,120.956856 126.673813,120.308121 124.015419,119.652473 
	C135.252518,109.573021 146.178772,99.595528 157.492279,90.078384 
	C178.822357,72.135124 202.484436,57.679348 227.225800,45.021057 
	C250.617081,33.053513 274.998566,23.373625 300.340637,16.433365 
	C314.226715,12.630483 328.402985,9.802576 342.552734,7.076631 
	C352.146088,5.228479 361.927032,4.363750 371.603821,2.923091 
	C372.478607,2.792858 373.204803,1.664719 374.000000,1.000001 
z"/>
<path fill="#1C98F7" opacity="1.000000" stroke="none" 
	d="
M1.000000,1187.000000 
	C1.000000,1098.312500 1.000000,1009.624878 1.468657,920.468628 
	C250.731125,920.000000 499.524933,919.996643 748.318726,920.047119 
	C750.894470,920.047668 753.470093,920.757935 755.943909,921.468506 
	C748.326050,935.051392 740.891724,948.349792 733.277466,961.544373 
	C715.931763,991.602417 698.452820,1021.583557 681.115479,1051.646484 
	C669.588074,1071.634888 658.275330,1091.747192 646.751099,1111.737549 
	C633.580688,1134.583374 620.158325,1157.285034 607.168213,1180.232056 
	C605.130310,1183.831909 603.057129,1184.909790 599.139404,1184.902588 
	C537.139648,1184.789429 475.139069,1184.662354 413.140076,1184.903320 
	C388.774200,1184.998169 364.274963,1182.886475 339.720947,1187.878906 
	C336.694672,1187.476807 334.060059,1187.030762 331.425293,1187.030029 
	C221.283524,1186.995117 111.141762,1187.000000 1.000000,1187.000000 
z"/>
<path fill="#19B1FA" opacity="1.000000" stroke="none" 
	d="
M1.000000,414.000000 
	C1.000000,401.645782 1.000000,389.291534 1.231867,376.797180 
	C2.308968,371.356049 3.108931,366.047424 4.009189,360.755798 
	C5.697583,350.831665 7.444016,340.917450 9.624393,330.999390 
	C44.580040,330.999817 79.077606,331.000000 113.575172,331.000000 
	C752.533508,331.000031 1391.491821,331.001587 2030.450195,330.958710 
	C2033.911255,330.958466 2037.372437,330.332855 2040.917236,330.404602 
	C2041.277344,331.382172 2041.717529,331.930298 2041.805664,332.530151 
	C2043.562256,344.488464 2045.242188,356.458252 2047.070801,368.405334 
	C2047.214844,369.346588 2048.333984,370.138611 2049.000000,371.000000 
	C2049.000000,394.687561 2049.000000,418.375122 2048.535156,442.531342 
	C1776.091919,443.000244 1504.113770,443.000519 1232.030273,442.593262 
	C1231.625854,439.259216 1231.429443,436.318024 1231.011475,433.408661 
	C1228.146606,413.466003 1219.940796,396.003601 1205.851685,381.606293 
	C1183.031738,358.287140 1154.674438,350.191254 1123.093140,354.547974 
	C1093.089355,358.687103 1071.130859,375.561462 1056.218750,401.785889 
	C1045.697754,420.288055 1035.114868,438.755127 1024.501465,457.204529 
	C1021.944946,461.648651 1019.158813,465.960663 1016.166077,470.842651 
	C1015.248901,469.480682 1014.767395,468.857513 1014.381775,468.179779 
	C1004.903381,451.523712 995.700928,434.703217 985.877502,418.253448 
	C978.606079,406.077179 972.047485,392.966339 962.518005,382.745819 
	C936.981934,355.357758 904.803528,347.476807 868.765198,356.487732 
	C847.532898,361.796570 830.699097,374.221741 818.529602,392.402588 
	C813.733704,399.567566 810.197021,407.575409 805.764954,414.928802 
	C802.983032,414.438751 800.523132,414.027527 798.063232,414.027252 
	C532.375488,413.998260 266.687744,414.000000 1.000000,414.000000 
z"/>
<path fill="#1F80F4" opacity="1.000000" stroke="none" 
	d="
M1.000004,1677.000000 
	C1.000000,1654.979126 1.000000,1632.958130 1.468657,1610.468628 
	C131.108429,1610.000000 260.279541,1610.006958 389.450623,1609.958130 
	C392.574951,1609.956909 395.699005,1609.335083 398.966003,1609.351318 
	C403.352478,1621.220825 409.685394,1631.558228 418.100616,1640.387085 
	C428.294464,1651.082397 440.500061,1658.744385 454.542603,1663.876831 
	C472.666840,1670.501221 490.793793,1670.577026 509.253052,1666.294800 
	C527.613647,1662.035645 542.680725,1652.188354 556.198975,1638.916016 
	C557.684448,1638.958740 558.683777,1638.994873 559.683044,1638.994873 
	C862.544128,1638.998169 1165.405151,1639.001709 1468.266235,1638.956299 
	C1470.892212,1638.955933 1473.518311,1638.296387 1476.439697,1638.090820 
	C1477.541626,1639.076050 1478.331787,1639.931396 1479.156982,1640.751709 
	C1502.331909,1663.786255 1530.060791,1673.240967 1562.357910,1667.814941 
	C1585.037964,1664.004639 1603.570312,1652.523804 1618.835938,1635.489746 
	C1621.893433,1636.220581 1624.633789,1636.950195 1627.374390,1636.951294 
	C1767.916260,1637.006714 1908.458130,1637.000000 2049.000000,1637.000000 
	C2049.000000,1650.687622 2049.000000,1664.375122 2048.606934,1678.304443 
	C2047.476074,1682.816284 2046.765869,1687.091553 2045.994019,1691.355713 
	C2044.383057,1700.255615 2042.739624,1709.149658 2040.718506,1717.881226 
	C2037.359497,1717.477661 2034.391846,1717.029785 2031.424072,1717.029663 
	C1359.744019,1716.999146 688.063904,1716.999756 16.383801,1717.001709 
	C13.884473,1717.001709 11.385144,1717.028076 8.546464,1716.824463 
	C6.450555,1703.776245 4.712000,1690.942993 2.863708,1678.125610 
	C2.798043,1677.670288 1.645823,1677.371704 1.000004,1677.000000 
z"/>
<path fill="#1C96F7" opacity="1.000000" stroke="none" 
	d="
M2049.000000,973.000000 
	C2049.000000,1061.020874 2049.000000,1149.041870 2048.531250,1237.531372 
	C1953.053345,1238.000000 1858.043823,1237.990601 1763.034424,1238.053345 
	C1760.647095,1238.054932 1758.260132,1238.851318 1755.606934,1239.042236 
	C1737.377319,1203.349487 1708.168091,1185.522217 1668.773438,1185.296509 
	C1597.634644,1184.889038 1526.491943,1185.181030 1455.350830,1185.180786 
	C1447.520264,1185.180786 1439.683838,1185.342773 1431.863892,1185.055298 
	C1430.111572,1184.990845 1427.646240,1183.802368 1426.810181,1182.371216 
	C1411.304443,1155.831055 1396.010986,1129.166992 1380.641968,1102.546875 
	C1362.708130,1071.484253 1344.721436,1040.452148 1326.805786,1009.379211 
	C1320.045532,997.654297 1313.419678,985.851746 1307.166870,974.046753 
	C1311.062256,973.672607 1314.523438,973.042480 1317.984619,973.041809 
	C1561.656372,972.995789 1805.328247,973.000000 2049.000000,973.000000 
z"/>
<path fill="#1AAAF9" opacity="1.000000" stroke="none" 
	d="
M1232.135620,443.000793 
	C1504.113770,443.000519 1776.091919,443.000244 2048.535156,443.000000 
	C2049.000000,504.689972 2049.000000,566.379944 2048.531250,628.534973 
	C2047.062866,629.000000 2046.063110,629.000000 2045.063232,629.000000 
	C1746.613525,629.000000 1448.163940,629.002747 1149.714233,628.955017 
	C1147.131958,628.954590 1144.549805,628.274170 1142.023682,627.568298 
	C1166.429932,585.037842 1190.536011,542.706543 1215.244995,500.730133 
	C1225.824829,482.756775 1232.256592,463.928802 1232.135620,443.000793 
z"/>
<path fill="#1BA0F8" opacity="1.000000" stroke="none" 
	d="
M756.045776,921.136841 
	C753.470093,920.757935 750.894470,920.047668 748.318726,920.047119 
	C499.524933,919.996643 250.731125,920.000000 1.468657,920.000000 
	C1.000000,858.979126 1.000000,797.958191 1.468657,736.468628 
	C283.746857,736.000000 565.556396,735.999023 847.365906,736.007507 
	C852.331726,736.007629 857.825073,734.783752 860.251221,741.388550 
	C859.853088,742.112976 859.522949,742.558899 858.803589,743.010803 
	C853.348022,744.632751 850.481079,750.214783 852.632202,754.320374 
	C852.674377,754.283508 852.729187,754.381348 852.337524,754.333496 
	C851.661255,755.201782 851.376648,756.117920 851.027222,757.380005 
	C847.103577,764.221069 843.175598,770.676270 839.397644,777.218018 
	C821.338013,808.489441 803.350647,839.802673 785.272888,871.063538 
	C775.598022,887.793640 765.792419,904.448242 756.045776,921.136841 
z"/>
<path fill="#1BA4F8" opacity="1.000000" stroke="none" 
	d="
M1141.967529,627.911194 
	C1144.549805,628.274170 1147.131958,628.954590 1149.714233,628.955017 
	C1448.163940,629.002747 1746.613525,629.000000 2045.063232,629.000000 
	C2046.063110,629.000000 2047.062866,629.000000 2048.531250,629.000000 
	C2049.000000,681.687561 2049.000000,734.375122 2048.533936,787.531372 
	C1768.610107,788.000000 1489.152344,787.996399 1209.694580,788.043640 
	C1206.402954,788.044189 1203.111450,788.701477 1199.549316,788.854126 
	C1184.176514,762.692322 1169.074219,736.728577 1153.344360,709.685913 
	C1146.096313,717.681030 1139.102661,724.774048 1132.822754,732.450928 
	C1119.353516,748.916138 1109.818481,767.726685 1100.886719,787.101196 
	C1097.236694,787.048889 1094.078735,787.073853 1090.923584,786.991516 
	C1077.499756,786.641357 1064.076538,786.259460 1050.755859,785.543579 
	C1070.527344,751.113586 1090.167603,717.012573 1109.876587,682.951294 
	C1120.512817,664.569519 1131.266724,646.255676 1141.967529,627.911194 
z"/>
<path fill="#1B9EF8" opacity="1.000000" stroke="none" 
	d="
M1199.819824,789.052246 
	C1203.111450,788.701477 1206.402954,788.044189 1209.694580,788.043640 
	C1489.152344,787.996399 1768.610107,788.000000 2048.533936,788.000000 
	C2049.000000,849.355957 2049.000000,910.711914 2049.000000,972.533936 
	C1805.328247,973.000000 1561.656372,972.995789 1317.984619,973.041809 
	C1314.523438,973.042480 1311.062256,973.672607 1306.893555,973.853271 
	C1280.980957,930.039062 1255.759277,886.389893 1230.578735,842.717163 
	C1220.279907,824.855347 1210.070068,806.942139 1199.819824,789.052246 
z"/>
<path fill="#2074F3" opacity="1.000000" stroke="none" 
	d="
M1676.000000,2049.000000 
	C1242.300537,2049.000000 808.601196,2049.000000 374.692261,2048.611328 
	C370.708496,2047.485229 366.949280,2046.657593 363.157471,2046.025391 
	C348.687714,2043.613159 334.017029,2042.073486 319.770355,2038.723755 
	C289.170441,2031.529175 259.596405,2021.126953 231.429840,2007.041504 
	C211.573486,1997.111938 192.309845,1986.123535 174.435028,1972.881714 
	C167.111130,1967.456177 160.058411,1961.664429 153.358551,1956.030518 
	C155.501144,1956.014648 157.167572,1956.000854 158.834000,1956.000854 
	C736.260803,1955.999878 1313.687622,1955.999878 1891.114380,1956.001709 
	C1893.114014,1956.001709 1895.113647,1956.028564 1896.971313,1956.354736 
	C1888.784546,1962.796997 1880.918701,1969.180908 1872.660767,1975.008911 
	C1849.598022,1991.285645 1825.264648,2005.449585 1799.001343,2015.856079 
	C1781.224365,2022.900146 1763.145020,2029.348633 1744.830811,2034.825684 
	C1722.967773,2041.364136 1700.501221,2045.408813 1677.671631,2047.099121 
	C1677.070801,2047.143677 1676.555298,2048.340576 1676.000000,2049.000000 
z"/>
<path fill="#1BA6F8" opacity="1.000000" stroke="none" 
	d="
M860.319214,741.109924 
	C857.825073,734.783752 852.331726,736.007629 847.365906,736.007507 
	C565.556396,735.999023 283.746857,736.000000 1.468657,736.000000 
	C1.000000,681.979126 1.000000,627.958191 1.466985,573.468628 
	C287.885315,573.002380 573.836609,573.004700 860.012329,573.277344 
	C875.769958,600.449219 891.261108,627.375305 906.900146,654.215210 
	C908.493347,656.949463 908.148071,658.904114 906.653137,661.442261 
	C899.065369,674.325134 891.674744,687.324036 884.165344,700.253418 
	C876.245667,713.889160 868.270203,727.492432 860.319214,741.109924 
z"/>
<path fill="#1D8CF6" opacity="1.000000" stroke="none" 
	d="
M1.000000,1187.468628 
	C111.141762,1187.000000 221.283524,1186.995117 331.425293,1187.030029 
	C334.060059,1187.030762 336.694672,1187.476807 339.524292,1188.205078 
	C314.003937,1196.064575 295.282471,1212.271973 283.362122,1235.720825 
	C275.304474,1251.571045 271.869659,1268.813599 274.176727,1286.901978 
	C275.476196,1297.090332 277.679443,1306.895386 282.005157,1316.270264 
	C293.034546,1340.173950 311.207458,1356.394409 335.441498,1365.910034 
	C346.756989,1370.353149 358.748322,1371.135620 370.880035,1371.132324 
	C650.126709,1371.057373 929.373413,1371.074585 1208.620117,1371.074585 
	C1209.453247,1371.074585 1210.429199,1371.355469 1211.091431,1371.018799 
	C1212.791626,1370.154785 1215.298218,1369.359863 1215.816284,1367.932617 
	C1219.291504,1358.356689 1222.915527,1348.768677 1225.378540,1338.906616 
	C1229.182739,1323.674438 1229.252686,1308.116089 1226.174561,1292.729248 
	C1224.177612,1282.747314 1221.272095,1272.947144 1219.257324,1263.051270 
	C1232.333618,1262.970459 1244.926270,1262.904053 1257.739380,1263.077881 
	C1258.708984,1264.610107 1259.465820,1265.897827 1260.206665,1267.194702 
	C1274.073975,1291.470215 1287.861938,1315.791260 1301.825806,1340.010986 
	C1317.666992,1367.486694 1333.665527,1394.871704 1349.232666,1422.608643 
	C1346.114014,1423.280762 1343.358276,1423.954712 1340.602295,1423.955322 
	C1100.293701,1424.003662 859.985168,1424.000122 619.676636,1424.000610 
	C618.010193,1424.000610 616.295044,1423.766113 614.692566,1424.088257 
	C613.392944,1424.349365 612.228455,1425.283081 610.665771,1425.854126 
	C591.139954,1413.883057 570.176880,1406.699951 547.788452,1405.184937 
	C523.425903,1403.536255 499.142822,1405.311279 475.710663,1413.135864 
	C473.605804,1413.838867 471.379028,1415.598145 470.223022,1417.487549 
	C463.375061,1428.679565 456.826599,1440.054932 449.850525,1451.084473 
	C447.075928,1450.533447 444.628296,1450.033936 442.180542,1450.033325 
	C295.120361,1449.996216 148.060181,1450.000000 1.000000,1450.000000 
	C1.000000,1362.645752 1.000000,1275.291504 1.000000,1187.468628 
z"/>
<path fill="#1AADF9" opacity="1.000000" stroke="none" 
	d="
M859.787964,573.007019 
	C573.836609,573.004700 287.885315,573.002380 1.466985,573.000000 
	C1.000000,520.311340 1.000000,467.622650 1.000000,414.466980 
	C266.687744,414.000000 532.375488,413.998260 798.063232,414.027252 
	C800.523132,414.027527 802.983032,414.438751 805.778198,415.319031 
	C804.408691,424.824768 801.679688,433.615906 801.212463,442.525665 
	C800.242371,461.023010 805.446716,478.248383 814.680054,494.294098 
	C829.762756,520.504822 844.756592,546.766724 859.787964,573.007019 
z"/>
<path fill="#1D8BF6" opacity="1.000000" stroke="none" 
	d="
M1755.873047,1239.276855 
	C1758.260132,1238.851318 1760.647095,1238.054932 1763.034424,1238.053345 
	C1858.043823,1237.990601 1953.053345,1238.000000 2048.531250,1238.000000 
	C2049.000000,1317.687622 2049.000000,1397.375122 2048.531250,1477.531372 
	C1905.143921,1478.000000 1762.225098,1477.983154 1619.306274,1478.051270 
	C1612.345459,1478.054565 1605.384888,1478.802979 1598.211182,1478.958984 
	C1577.581299,1443.318970 1557.164551,1407.924683 1536.254150,1371.674683 
	C1539.138672,1371.674683 1540.924805,1371.674805 1542.710938,1371.674805 
	C1584.695312,1371.674683 1626.681396,1371.868408 1668.662842,1371.518677 
	C1677.572876,1371.444336 1686.740601,1370.394287 1695.317993,1368.060303 
	C1725.349731,1359.888672 1746.390259,1341.219727 1757.529175,1311.914917 
	C1764.302002,1294.096191 1766.090454,1275.877441 1761.090210,1257.274536 
	C1759.469238,1251.243652 1757.618652,1245.274292 1755.873047,1239.276855 
z"/>
<path fill="#1E83F5" opacity="1.000000" stroke="none" 
	d="
M1598.424194,1479.204590 
	C1605.384888,1478.802979 1612.345459,1478.054565 1619.306274,1478.051270 
	C1762.225098,1477.983154 1905.143921,1478.000000 2048.531250,1478.000000 
	C2049.000000,1530.687622 2049.000000,1583.375122 2049.000000,1636.531372 
	C1908.458130,1637.000000 1767.916260,1637.006714 1627.374390,1636.951294 
	C1624.633789,1636.950195 1621.893433,1636.220581 1618.985474,1635.209595 
	C1629.249878,1621.077515 1635.947876,1606.132202 1638.184326,1588.987427 
	C1641.049072,1567.026733 1636.999878,1546.716553 1626.046021,1527.614624 
	C1616.804077,1511.497803 1607.628906,1495.342773 1598.424194,1479.204590 
z"/>
<path fill="#1E86F5" opacity="1.000000" stroke="none" 
	d="
M1.000000,1450.468628 
	C148.060181,1450.000000 295.120361,1449.996216 442.180542,1450.033325 
	C444.628296,1450.033936 447.075928,1450.533447 449.781738,1451.416504 
	C449.051392,1453.535400 447.985138,1454.993042 447.086151,1456.547485 
	C433.213104,1480.535156 419.231476,1504.461548 405.557129,1528.562256 
	C398.044006,1541.803589 393.628937,1555.993164 392.982269,1571.423828 
	C392.437073,1584.432617 394.923279,1596.781616 398.823212,1609.002686 
	C395.699005,1609.335083 392.574951,1609.956909 389.450623,1609.958130 
	C260.279541,1610.006958 131.108429,1610.000000 1.468657,1610.000000 
	C1.000000,1556.979126 1.000000,1503.958130 1.000000,1450.468628 
z"/>
<path fill="#000000" opacity="1.000000" stroke="none" 
	d="
M9.166313,330.999084 
	C7.444016,340.917450 5.697583,350.831665 4.009189,360.755798 
	C3.108931,366.047424 2.308968,371.356049 1.231867,376.328491 
	C1.000000,251.073120 1.000000,126.146240 1.000000,1.000000 
	C125.020805,1.000000 249.041748,1.000000 373.531342,1.000001 
	C373.204803,1.664719 372.478607,2.792858 371.603821,2.923091 
	C361.927032,4.363750 352.146088,5.228479 342.552734,7.076631 
	C328.402985,9.802576 314.226715,12.630483 300.340637,16.433365 
	C274.998566,23.373625 250.617081,33.053513 227.225800,45.021057 
	C202.484436,57.679348 178.822357,72.135124 157.492279,90.078384 
	C146.178772,99.595528 135.252518,109.573021 123.709129,119.778763 
	C112.878471,131.611664 102.270805,142.819000 92.191803,154.483154 
	C86.940331,160.560532 82.620758,167.443176 77.565048,174.098190 
	C76.287712,175.528549 75.242531,176.769806 74.377190,178.125824 
	C69.544266,185.699326 64.754837,193.300568 59.633312,201.050934 
	C58.552845,202.633224 57.752628,204.038498 57.032028,205.483475 
	C48.975731,221.638107 40.931713,237.798843 32.558014,254.136353 
	C27.078005,269.400452 21.579721,284.380035 16.890991,299.608856 
	C13.725451,309.890411 11.701124,320.523346 9.166313,330.999084 
z"/>
<path fill="#000000" opacity="1.000000" stroke="none" 
	d="
M2049.000000,370.531342 
	C2048.333984,370.138611 2047.214844,369.346588 2047.070801,368.405334 
	C2045.242188,356.458252 2043.562256,344.488464 2041.805664,332.530151 
	C2041.717529,331.930298 2041.277344,331.382172 2040.979736,330.003540 
	C2038.330566,318.893280 2036.179565,308.437683 2032.961060,298.321747 
	C2028.325684,283.751678 2022.914185,269.428497 2017.798218,254.642822 
	C2010.549805,239.838806 2003.336914,225.391876 1995.972412,210.623383 
	C1990.829590,202.035721 1985.973633,193.683640 1980.790527,185.539780 
	C1978.208618,181.483078 1975.027222,177.807877 1972.061768,173.605713 
	C1966.530518,166.190735 1961.373657,158.851456 1955.506226,152.132767 
	C1945.954468,141.195175 1935.938232,130.663254 1926.118042,119.960106 
	C1912.776123,108.311615 1899.768066,96.248634 1885.983032,85.150497 
	C1875.629517,76.814865 1864.608643,69.180763 1853.279785,62.219120 
	C1841.488403,54.973183 1829.036499,48.783710 1816.754883,42.358677 
	C1798.819214,32.975784 1780.067383,25.456659 1760.597412,20.034412 
	C1742.086060,14.879118 1723.388306,10.323423 1704.623779,6.177208 
	C1696.049438,4.282618 1687.114136,4.036624 1678.353638,2.951918 
	C1677.306030,2.822199 1676.329590,2.119020 1675.660034,1.340824 
	C1800.260132,1.000000 1924.520142,1.000000 2049.000000,1.000000 
	C2049.000000,124.020805 2049.000000,247.041748 2049.000000,370.531342 
z"/>
<path fill="#000000" opacity="1.000000" stroke="none" 
	d="
M152.882385,1956.039185 
	C160.058411,1961.664429 167.111130,1967.456177 174.435028,1972.881714 
	C192.309845,1986.123535 211.573486,1997.111938 231.429840,2007.041504 
	C259.596405,2021.126953 289.170441,2031.529175 319.770355,2038.723755 
	C334.017029,2042.073486 348.687714,2043.613159 363.157471,2046.025391 
	C366.949280,2046.657593 370.708496,2047.485229 374.241364,2048.611328 
	C249.739685,2049.000000 125.479355,2049.000000 1.000000,2049.000000 
	C1.000000,1925.312500 1.000000,1801.624878 1.000004,1677.468628 
	C1.645823,1677.371704 2.798043,1677.670288 2.863708,1678.125610 
	C4.712000,1690.942993 6.450555,1703.776245 8.594482,1717.247070 
	C9.002475,1718.881836 8.819057,1719.932373 9.074194,1720.862305 
	C13.222187,1735.980713 17.027618,1751.209717 21.749805,1766.148315 
	C25.181253,1777.003540 29.841469,1787.470215 33.984093,1798.482910 
	C34.695740,1800.667969 35.209095,1802.566162 36.085114,1804.278809 
	C42.891670,1817.587158 49.292820,1831.134644 56.768196,1844.059204 
	C63.152424,1855.097412 70.795166,1865.407471 77.936325,1876.393311 
	C85.775154,1886.785400 92.908295,1897.424561 101.493507,1906.723022 
	C114.733414,1921.062622 128.901154,1934.552002 142.833725,1948.240601 
	C145.837677,1951.191895 149.515167,1953.457642 152.882385,1956.039185 
z"/>
<path fill="#000000" opacity="1.000000" stroke="none" 
	d="
M1676.468628,2049.000000 
	C1676.555298,2048.340576 1677.070801,2047.143677 1677.671631,2047.099121 
	C1700.501221,2045.408813 1722.967773,2041.364136 1744.830811,2034.825684 
	C1763.145020,2029.348633 1781.224365,2022.900146 1799.001343,2015.856079 
	C1825.264648,2005.449585 1849.598022,1991.285645 1872.660767,1975.008911 
	C1880.918701,1969.180908 1888.784546,1962.796997 1897.318848,1956.328857 
	C1904.030151,1950.665649 1910.710815,1945.784912 1916.384277,1939.928467 
	C1930.769775,1925.078735 1944.898926,1909.966919 1958.715454,1894.587036 
	C1963.784302,1888.944702 1967.684692,1882.252686 1972.428955,1875.900146 
	C1977.500000,1868.780518 1982.487305,1861.942871 1986.976685,1854.792725 
	C1998.940430,1835.738403 2009.445679,1815.908813 2018.000244,1794.661865 
	C2023.233276,1779.961304 2028.747681,1765.734497 2033.219116,1751.187378 
	C2036.548706,1740.355225 2038.528564,1729.108276 2041.109619,1718.046021 
	C2042.739624,1709.149658 2044.383057,1700.255615 2045.994019,1691.355713 
	C2046.765869,1687.091553 2047.476074,1682.816284 2048.606934,1678.772949 
	C2049.000000,1802.260742 2049.000000,1925.521484 2049.000000,2049.000000 
	C1924.979126,2049.000000 1800.958252,2049.000000 1676.468628,2049.000000 
z"/>
<path fill="#19B9FA" opacity="1.000000" stroke="none" 
	d="
M1925.700928,120.045410 
	C1935.938232,130.663254 1945.954468,141.195175 1955.506226,152.132767 
	C1961.373657,158.851456 1966.530518,166.190735 1971.644775,173.691116 
	C1968.816040,174.420547 1966.349365,174.963898 1963.882568,174.964035 
	C1338.009521,175.000870 712.136536,175.001236 86.263496,174.957108 
	C83.469063,174.956909 80.674667,174.308014 77.880257,173.962082 
	C82.620758,167.443176 86.940331,160.560532 92.191803,154.483154 
	C102.270805,142.819000 112.878471,131.611664 123.573112,120.088531 
	C126.673813,120.308121 129.468216,120.956856 132.262634,120.957062 
	C727.469727,121.001259 1322.676758,121.000885 1917.883911,120.963997 
	C1920.350586,120.963844 1922.817139,120.420410 1925.700928,120.045410 
z"/>
<path fill="#FFFFFF" opacity="1.000000" stroke="none" 
	d="
M860.012329,573.277344 
	C844.756592,546.766724 829.762756,520.504822 814.680054,494.294098 
	C805.446716,478.248383 800.242371,461.023010 801.212463,442.525665 
	C801.679688,433.615906 804.408691,424.824768 806.100220,415.589691 
	C810.197021,407.575409 813.733704,399.567566 818.529602,392.402588 
	C830.699097,374.221741 847.532898,361.796570 868.765198,356.487732 
	C904.803528,347.476807 936.981934,355.357758 962.518005,382.745819 
	C972.047485,392.966339 978.606079,406.077179 985.877502,418.253448 
	C995.700928,434.703217 1004.903381,451.523712 1014.381775,468.179779 
	C1014.767395,468.857513 1015.248901,469.480682 1016.166077,470.842651 
	C1019.158813,465.960663 1021.944946,461.648651 1024.501465,457.204529 
	C1035.114868,438.755127 1045.697754,420.288055 1056.218750,401.785889 
	C1071.130859,375.561462 1093.089355,358.687103 1123.093140,354.547974 
	C1154.674438,350.191254 1183.031738,358.287140 1205.851685,381.606293 
	C1219.940796,396.003601 1228.146606,413.466003 1231.011475,433.408661 
	C1231.429443,436.318024 1231.625854,439.259216 1232.030273,442.593262 
	C1232.256592,463.928802 1225.824829,482.756775 1215.244995,500.730133 
	C1190.536011,542.706543 1166.429932,585.037842 1142.023682,627.568298 
	C1131.266724,646.255676 1120.512817,664.569519 1109.876587,682.951294 
	C1090.167603,717.012573 1070.527344,751.113586 1050.505615,785.758057 
	C1033.265015,815.536621 1016.354797,844.742126 999.496948,873.977844 
	C986.048035,897.301514 972.663086,920.661987 959.027710,944.279907 
	C948.391541,962.526794 937.949158,980.483459 927.569702,998.476379 
	C907.475586,1033.309814 887.416809,1068.163574 867.124756,1103.291626 
	C851.362854,1130.328125 835.819763,1157.081909 819.704895,1184.819702 
	C823.142944,1184.819702 825.093445,1184.819702 827.043945,1184.819702 
	C919.813782,1184.819702 1012.583557,1184.793579 1105.353394,1184.872803 
	C1112.294189,1184.878784 1119.320801,1185.084717 1126.159424,1186.149170 
	C1151.031860,1190.020874 1172.261841,1201.142578 1189.980347,1219.079468 
	C1202.565308,1231.819458 1211.504883,1246.879517 1218.773804,1263.065552 
	C1221.272095,1272.947144 1224.177612,1282.747314 1226.174561,1292.729248 
	C1229.252686,1308.116089 1229.182739,1323.674438 1225.378540,1338.906616 
	C1222.915527,1348.768677 1219.291504,1358.356689 1215.816284,1367.932617 
	C1215.298218,1369.359863 1212.791626,1370.154785 1211.091431,1371.018799 
	C1210.429199,1371.355469 1209.453247,1371.074585 1208.620117,1371.074585 
	C929.373413,1371.074585 650.126709,1371.057373 370.880035,1371.132324 
	C358.748322,1371.135620 346.756989,1370.353149 335.441498,1365.910034 
	C311.207458,1356.394409 293.034546,1340.173950 282.005157,1316.270264 
	C277.679443,1306.895386 275.476196,1297.090332 274.176727,1286.901978 
	C271.869659,1268.813599 275.304474,1251.571045 283.362122,1235.720825 
	C295.282471,1212.271973 314.003937,1196.064575 339.915894,1188.368896 
	C364.274963,1182.886475 388.774200,1184.998169 413.140076,1184.903320 
	C475.139069,1184.662354 537.139648,1184.789429 599.139404,1184.902588 
	C603.057129,1184.909790 605.130310,1183.831909 607.168213,1180.232056 
	C620.158325,1157.285034 633.580688,1134.583374 646.751099,1111.737549 
	C658.275330,1091.747192 669.588074,1071.634888 681.115479,1051.646484 
	C698.452820,1021.583557 715.931763,991.602417 733.277466,961.544373 
	C740.891724,948.349792 748.326050,935.051392 755.943909,921.468506 
	C765.792419,904.448242 775.598022,887.793640 785.272888,871.063538 
	C803.350647,839.802673 821.338013,808.489441 839.397644,777.218018 
	C843.175598,770.676270 847.103577,764.221069 851.264771,757.230957 
	C851.954407,755.950989 852.341797,755.166199 852.729187,754.381348 
	C852.729187,754.381348 852.674377,754.283508 852.853271,754.173462 
	C855.085693,750.377136 857.139221,746.690979 859.192749,743.004761 
	C859.522949,742.558899 859.853088,742.112976 860.251221,741.388550 
	C868.270203,727.492432 876.245667,713.889160 884.165344,700.253418 
	C891.674744,687.324036 899.065369,674.325134 906.653137,661.442261 
	C908.148071,658.904114 908.493347,656.949463 906.900146,654.215210 
	C891.261108,627.375305 875.769958,600.449219 860.012329,573.277344 
z"/>
<path fill="#19B4FA" opacity="1.000000" stroke="none" 
	d="
M2017.833862,254.999939 
	C2022.914185,269.428497 2028.325684,283.751678 2032.961060,298.321747 
	C2036.179565,308.437683 2038.330566,318.893280 2040.895996,329.598206 
	C2037.372437,330.332855 2033.911255,330.958466 2030.450195,330.958710 
	C1391.491821,331.001587 752.533508,331.000031 113.575172,331.000000 
	C79.077606,331.000000 44.580040,330.999817 9.624396,330.999390 
	C11.701124,320.523346 13.725451,309.890411 16.890991,299.608856 
	C21.579721,284.380035 27.078005,269.400452 33.030331,254.146942 
	C36.328453,253.986084 38.827881,253.999130 41.327312,253.999146 
	C691.868042,254.000031 1342.408813,253.996292 1992.949585,254.041489 
	C2001.244385,254.042053 2009.539062,254.666626 2017.833862,254.999939 
z"/>
<path fill="#FFFFFF" opacity="1.000000" stroke="none" 
	d="
M1598.211182,1478.958984 
	C1607.628906,1495.342773 1616.804077,1511.497803 1626.046021,1527.614624 
	C1636.999878,1546.716553 1641.049072,1567.026733 1638.184326,1588.987427 
	C1635.947876,1606.132202 1629.249878,1621.077515 1618.668457,1634.868652 
	C1603.570312,1652.523804 1585.037964,1664.004639 1562.357910,1667.814941 
	C1530.060791,1673.240967 1502.331909,1663.786255 1479.156982,1640.751709 
	C1478.331787,1639.931396 1477.541626,1639.076050 1476.320557,1637.771362 
	C1471.758423,1631.303711 1467.234619,1625.524292 1463.531616,1619.259644 
	C1450.696289,1597.545532 1438.146240,1575.662964 1425.355713,1553.506592 
	C1420.868896,1545.715698 1416.479370,1538.282593 1412.165039,1530.806030 
	C1391.297485,1494.642456 1370.450195,1458.467163 1349.595581,1422.296143 
	C1333.665527,1394.871704 1317.666992,1367.486694 1301.825806,1340.010986 
	C1287.861938,1315.791260 1274.073975,1291.470215 1260.206665,1267.194702 
	C1259.465820,1265.897827 1258.708984,1264.610107 1257.607178,1262.739624 
	C1237.327515,1227.602295 1217.430786,1193.025757 1197.461060,1158.491455 
	C1186.736694,1139.945557 1175.886841,1121.472412 1165.030396,1102.618408 
	C1149.529541,1075.456055 1133.959229,1048.716797 1118.693359,1021.804993 
	C1104.816528,997.341797 1094.568237,971.420715 1088.586670,943.444336 
	C1086.744385,930.684387 1084.154541,918.402954 1083.297119,906.001709 
	C1081.605957,881.541626 1081.744507,857.023682 1087.987061,833.071899 
	C1092.008545,817.642151 1096.886230,802.435608 1101.380005,787.129028 
	C1109.818481,767.726685 1119.353516,748.916138 1132.822754,732.450928 
	C1139.102661,724.774048 1146.096313,717.681030 1153.344360,709.685913 
	C1169.074219,736.728577 1184.176514,762.692322 1199.549316,788.854126 
	C1210.070068,806.942139 1220.279907,824.855347 1230.578735,842.717163 
	C1255.759277,886.389893 1280.980957,930.039062 1306.459473,973.891113 
	C1313.419678,985.851746 1320.045532,997.654297 1326.805786,1009.379211 
	C1344.721436,1040.452148 1362.708130,1071.484253 1380.641968,1102.546875 
	C1396.010986,1129.166992 1411.304443,1155.831055 1426.810181,1182.371216 
	C1427.646240,1183.802368 1430.111572,1184.990845 1431.863892,1185.055298 
	C1439.683838,1185.342773 1447.520264,1185.180786 1455.350830,1185.180786 
	C1526.491943,1185.181030 1597.634644,1184.889038 1668.773438,1185.296509 
	C1708.168091,1185.522217 1737.377319,1203.349487 1755.607056,1239.042236 
	C1757.618652,1245.274292 1759.469238,1251.243652 1761.090210,1257.274536 
	C1766.090454,1275.877441 1764.302002,1294.096191 1757.529175,1311.914917 
	C1746.390259,1341.219727 1725.349731,1359.888672 1695.317993,1368.060303 
	C1686.740601,1370.394287 1677.572876,1371.444336 1668.662842,1371.518677 
	C1626.681396,1371.868408 1584.695312,1371.674683 1542.710938,1371.674805 
	C1540.924805,1371.674805 1539.138672,1371.674683 1536.254150,1371.674683 
	C1557.164551,1407.924683 1577.581299,1443.318970 1598.211182,1478.958984 
z"/>
<path fill="#1F7DF4" opacity="1.000000" stroke="none" 
	d="
M2040.718384,1717.881226 
	C2038.528564,1729.108276 2036.548706,1740.355225 2033.219116,1751.187378 
	C2028.747681,1765.734497 2023.233276,1779.961304 2017.591064,1794.694092 
	C2013.548340,1795.375000 2010.081177,1795.961182 2006.614014,1795.961426 
	C1352.473022,1796.001465 698.332031,1796.000000 44.191029,1796.000366 
	C42.357780,1796.000366 40.469975,1795.733276 38.707130,1796.086914 
	C37.053951,1796.418579 35.532982,1797.409424 33.953823,1798.110107 
	C29.841469,1787.470215 25.181253,1777.003540 21.749805,1766.148315 
	C17.027618,1751.209717 13.222187,1735.980713 9.074194,1720.862305 
	C8.819057,1719.932373 9.002475,1718.881836 8.933834,1717.464844 
	C11.385144,1717.028076 13.884473,1717.001709 16.383801,1717.001709 
	C688.063904,1716.999756 1359.744019,1716.999146 2031.424072,1717.029663 
	C2034.391846,1717.029785 2037.359497,1717.477661 2040.718384,1717.881226 
z"/>
<path fill="#1E83F5" opacity="1.000000" stroke="none" 
	d="
M1425.487793,1553.844238 
	C1438.146240,1575.662964 1450.696289,1597.545532 1463.531616,1619.259644 
	C1467.234619,1625.524292 1471.758423,1631.303711 1476.025146,1637.625000 
	C1473.518311,1638.296387 1470.892212,1638.955933 1468.266235,1638.956299 
	C1165.405151,1639.001709 862.544128,1638.998169 559.683044,1638.994873 
	C558.683777,1638.994873 557.684448,1638.958740 556.339966,1638.602173 
	C561.004578,1630.841919 566.379822,1623.636353 570.953613,1615.953735 
	C583.183228,1595.411987 595.068970,1574.665771 607.512085,1553.991943 
	C612.733154,1553.655396 617.533508,1553.041870 622.333923,1553.041016 
	C882.080750,1552.994751 1141.827637,1552.992432 1401.574463,1553.035278 
	C1409.545532,1553.036621 1417.516724,1553.562866 1425.487793,1553.844238 
z"/>
<path fill="#FFFFFF" opacity="1.000000" stroke="none" 
	d="
M607.091309,1554.000732 
	C595.068970,1574.665771 583.183228,1595.411987 570.953613,1615.953735 
	C566.379822,1623.636353 561.004578,1630.841919 555.853760,1638.578857 
	C542.680725,1652.188354 527.613647,1662.035645 509.253052,1666.294800 
	C490.793793,1670.577026 472.666840,1670.501221 454.542603,1663.876831 
	C440.500061,1658.744385 428.294464,1651.082397 418.100616,1640.387085 
	C409.685394,1631.558228 403.352478,1621.220825 398.966003,1609.351318 
	C394.923279,1596.781616 392.437073,1584.432617 392.982269,1571.423828 
	C393.628937,1555.993164 398.044006,1541.803589 405.557129,1528.562256 
	C419.231476,1504.461548 433.213104,1480.535156 447.086151,1456.547485 
	C447.985138,1454.993042 449.051392,1453.535400 450.108643,1451.700684 
	C456.826599,1440.054932 463.375061,1428.679565 470.223022,1417.487549 
	C471.379028,1415.598145 473.605804,1413.838867 475.710663,1413.135864 
	C499.142822,1405.311279 523.425903,1403.536255 547.788452,1405.184937 
	C570.176880,1406.699951 591.139954,1413.883057 610.888916,1426.113770 
	C627.197083,1436.371094 640.803345,1448.747192 653.101929,1462.662109 
	C655.892761,1465.819824 656.539917,1468.487549 654.036011,1472.284180 
	C650.197144,1478.105225 646.936646,1484.309570 643.467468,1490.372192 
	C631.333618,1511.576782 619.215454,1532.790527 607.091309,1554.000732 
z"/>
<path fill="#1BA6F8" opacity="1.000000" stroke="none" 
	d="
M858.803589,743.010803 
	C857.139221,746.690979 855.085693,750.377136 852.811035,754.210327 
	C850.481079,750.214783 853.348022,744.632751 858.803589,743.010803 
z"/>
<path fill="#1BA6F8" opacity="1.000000" stroke="none" 
	d="
M852.337524,754.333496 
	C852.341797,755.166199 851.954407,755.950989 851.329590,756.884949 
	C851.376648,756.117920 851.661255,755.201782 852.337524,754.333496 
z"/>
<path fill="#1C9FF8" opacity="1.000000" stroke="none" 
	d="
M1100.886719,787.101196 
	C1096.886230,802.435608 1092.008545,817.642151 1087.987061,833.071899 
	C1081.744507,857.023682 1081.605957,881.541626 1083.297119,906.001709 
	C1084.154541,918.402954 1086.744385,930.684387 1088.075684,943.469849 
	C1044.816895,943.948547 1002.033386,943.977356 959.249878,944.006104 
	C972.663086,920.661987 986.048035,897.301514 999.496948,873.977844 
	C1016.354797,844.742126 1033.265015,815.536621 1050.402954,786.103638 
	C1064.076538,786.259460 1077.499756,786.641357 1090.923584,786.991516 
	C1094.078735,787.073853 1097.236694,787.048889 1100.886719,787.101196 
z"/>
<path fill="#1F77F4" opacity="1.000000" stroke="none" 
	d="
M1972.118164,1876.039551 
	C1967.684692,1882.252686 1963.784302,1888.944702 1958.715454,1894.587036 
	C1944.898926,1909.966919 1930.769775,1925.078735 1916.384277,1939.928467 
	C1910.710815,1945.784912 1904.030151,1950.665649 1897.460693,1956.016846 
	C1895.113647,1956.028564 1893.114014,1956.001709 1891.114380,1956.001709 
	C1313.687622,1955.999878 736.260803,1955.999878 158.834000,1956.000854 
	C157.167572,1956.000854 155.501144,1956.014648 153.358551,1956.030518 
	C149.515167,1953.457642 145.837677,1951.191895 142.833725,1948.240601 
	C128.901154,1934.552002 114.733414,1921.062622 101.493507,1906.723022 
	C92.908295,1897.424561 85.775154,1886.785400 78.412704,1876.384399 
	C80.500290,1876.014526 82.166588,1876.000854 83.832878,1876.000854 
	C711.261658,1876.000000 1338.690430,1875.999878 1966.119263,1876.001587 
	C1968.118896,1876.001587 1970.118652,1876.026489 1972.118164,1876.039551 
z"/>
<path fill="#1E87F5" opacity="1.000000" stroke="none" 
	d="
M607.512085,1553.991943 
	C619.215454,1532.790527 631.333618,1511.576782 643.467468,1490.372192 
	C646.936646,1484.309570 650.197144,1478.105225 654.036011,1472.284180 
	C656.539917,1468.487549 655.892761,1465.819824 653.101929,1462.662109 
	C640.803345,1448.747192 627.197083,1436.371094 611.227112,1426.178223 
	C612.228455,1425.283081 613.392944,1424.349365 614.692566,1424.088257 
	C616.295044,1423.766113 618.010193,1424.000610 619.676636,1424.000610 
	C859.985168,1424.000122 1100.293701,1424.003662 1340.602295,1423.955322 
	C1343.358276,1423.954712 1346.114014,1423.280762 1349.232666,1422.608643 
	C1370.450195,1458.467163 1391.297485,1494.642456 1412.165039,1530.806030 
	C1416.479370,1538.282593 1420.868896,1545.715698 1425.355713,1553.506592 
	C1417.516724,1553.562866 1409.545532,1553.036621 1401.574463,1553.035278 
	C1141.827637,1552.992432 882.080750,1552.994751 622.333923,1553.041016 
	C617.533508,1553.041870 612.733154,1553.655396 607.512085,1553.991943 
z"/>
<path fill="#1D94F6" opacity="1.000000" stroke="none" 
	d="
M1165.093628,1102.966431 
	C1175.886841,1121.472412 1186.736694,1139.945557 1197.461060,1158.491455 
	C1217.430786,1193.025757 1237.327515,1227.602295 1257.386719,1262.499512 
	C1244.926270,1262.904053 1232.333618,1262.970459 1219.257324,1263.051270 
	C1211.504883,1246.879517 1202.565308,1231.819458 1189.980347,1219.079468 
	C1172.261841,1201.142578 1151.031860,1190.020874 1126.159424,1186.149170 
	C1119.320801,1185.084717 1112.294189,1184.878784 1105.353394,1184.872803 
	C1012.583557,1184.793579 919.813782,1184.819702 827.043945,1184.819702 
	C825.093445,1184.819702 823.142944,1184.819702 819.704895,1184.819702 
	C835.819763,1157.081909 851.362854,1130.328125 867.570923,1103.290039 
	C967.188416,1102.992554 1066.140991,1102.979492 1165.093628,1102.966431 
z"/>
<path fill="#19B6FA" opacity="1.000000" stroke="none" 
	d="
M2017.798218,254.642838 
	C2009.539062,254.666626 2001.244385,254.042053 1992.949585,254.041489 
	C1342.408813,253.996292 691.868042,254.000031 41.327312,253.999146 
	C38.827881,253.999130 36.328453,253.986084 33.356705,253.968536 
	C40.931713,237.798843 48.975731,221.638107 57.032028,205.483475 
	C57.752628,204.038498 58.552845,202.633224 59.832245,201.374359 
	C63.562817,202.359467 66.777107,203.897964 69.991653,203.898499 
	C706.225769,204.003632 1342.459961,203.999985 1978.694092,204.000046 
	C1980.527100,204.000046 1982.364258,204.078873 1984.192261,203.983521 
	C1987.071289,203.833344 1989.087524,204.507202 1990.644409,207.436371 
	C1991.531616,209.105240 1994.237305,209.807465 1996.124146,210.944946 
	C2003.336914,225.391876 2010.549805,239.838806 2017.798218,254.642838 
z"/>
<path fill="#19B8FA" opacity="1.000000" stroke="none" 
	d="
M1995.972412,210.623383 
	C1994.237305,209.807465 1991.531616,209.105240 1990.644409,207.436371 
	C1989.087524,204.507202 1987.071289,203.833344 1984.192261,203.983521 
	C1982.364258,204.078873 1980.527100,204.000046 1978.694092,204.000046 
	C1342.459961,203.999985 706.225769,204.003632 69.991653,203.898499 
	C66.777107,203.897964 63.562817,202.359467 60.149471,201.215775 
	C64.754837,193.300568 69.544266,185.699326 74.377190,178.125824 
	C75.242531,176.769806 76.287712,175.528549 77.565048,174.098190 
	C80.674667,174.308014 83.469063,174.956909 86.263496,174.957108 
	C712.136536,175.001236 1338.009521,175.000870 1963.882568,174.964035 
	C1966.349365,174.963898 1968.816040,174.420547 1971.699951,174.045471 
	C1975.027222,177.807877 1978.208618,181.483078 1980.790527,185.539780 
	C1985.973633,193.683640 1990.829590,202.035721 1995.972412,210.623383 
z"/>
<path fill="#1F7AF4" opacity="1.000000" stroke="none" 
	d="
M1972.428955,1875.900146 
	C1970.118652,1876.026489 1968.118896,1876.001587 1966.119263,1876.001587 
	C1338.690430,1875.999878 711.261658,1876.000000 83.832878,1876.000854 
	C82.166588,1876.000854 80.500290,1876.014526 78.357620,1876.030762 
	C70.795166,1865.407471 63.152424,1855.097412 56.768196,1844.059204 
	C49.292820,1831.134644 42.891670,1817.587158 36.085114,1804.278809 
	C35.209095,1802.566162 34.695740,1800.667969 33.984097,1798.482910 
	C35.532982,1797.409424 37.053951,1796.418579 38.707130,1796.086914 
	C40.469975,1795.733276 42.357780,1796.000366 44.191029,1796.000366 
	C698.332031,1796.000000 1352.473022,1796.001465 2006.614014,1795.961426 
	C2010.081177,1795.961182 2013.548340,1795.375000 2017.424683,1795.030396 
	C2009.445679,1815.908813 1998.940430,1835.738403 1986.976685,1854.792725 
	C1982.487305,1861.942871 1977.500000,1868.780518 1972.428955,1875.900146 
z"/>
<path fill="#1C98F7" opacity="1.000000" stroke="none" 
	d="
M1165.030396,1102.618408 
	C1066.140991,1102.979492 967.188416,1102.992554 867.789673,1103.007324 
	C887.416809,1068.163574 907.475586,1033.309814 927.569702,998.476379 
	C937.949158,980.483459 948.391541,962.526794 959.027710,944.279968 
	C1002.033386,943.977356 1044.816895,943.948547 1088.111328,943.894165 
	C1094.568237,971.420715 1104.816528,997.341797 1118.693359,1021.804993 
	C1133.959229,1048.716797 1149.529541,1075.456055 1165.030396,1102.618408 
z"/>
</svg>